solid OpenSCAD_Model
  facet normal 0 0 1
    outer loop
      vertex 47.8 -75 0
      vertex 9.96057 -110.563 0
      vertex 10 -111.19 0
    endloop
  endfacet
  facet normal 0 0 1
    outer loop
      vertex 34.2 -75 0
      vertex 9.84292 -109.947 0
      vertex 9.96057 -110.563 0
    endloop
  endfacet
  facet normal 0 0 1
    outer loop
      vertex 34.2 -75 0
      vertex 9.64888 -109.349 0
      vertex 9.84292 -109.947 0
    endloop
  endfacet
  facet normal 0 0 1
    outer loop
      vertex 34.2 -75 0
      vertex 9.38153 -108.781 0
      vertex 9.64888 -109.349 0
    endloop
  endfacet
  facet normal 0 0 1
    outer loop
      vertex 34.2 -75 0
      vertex 9.04508 -108.251 0
      vertex 9.38153 -108.781 0
    endloop
  endfacet
  facet normal 0 0 1
    outer loop
      vertex 34.2 -75 0
      vertex 8.64484 -107.767 0
      vertex 9.04508 -108.251 0
    endloop
  endfacet
  facet normal 0 0 1
    outer loop
      vertex 34.2 -75 0
      vertex 8.18712 -107.337 0
      vertex 8.64484 -107.767 0
    endloop
  endfacet
  facet normal 0 0 1
    outer loop
      vertex 34.2 -75 0
      vertex 7.67913 -106.968 0
      vertex 8.18712 -107.337 0
    endloop
  endfacet
  facet normal 0 0 1
    outer loop
      vertex 34.2 -75 0
      vertex 7.1289 -106.666 0
      vertex 7.67913 -106.968 0
    endloop
  endfacet
  facet normal 0 0 1
    outer loop
      vertex 34.2 -75 0
      vertex 6.54508 -106.435 0
      vertex 7.1289 -106.666 0
    endloop
  endfacet
  facet normal 0 0 1
    outer loop
      vertex 34.2 -75 0
      vertex -1.87607 -70 0
      vertex 6.54508 -106.435 0
    endloop
  endfacet
  facet normal 0 0 1
    outer loop
      vertex 6.54508 -106.435 0
      vertex -1.87607 -70 0
      vertex 5.93691 -106.279 0
    endloop
  endfacet
  facet normal 0 0 1
    outer loop
      vertex 5.93691 -106.279 0
      vertex -1.87607 -70 0
      vertex 5.31395 -106.2 0
    endloop
  endfacet
  facet normal 0 0 1
    outer loop
      vertex 5.31395 -106.2 0
      vertex -1.87607 -70 0
      vertex 4.68605 -106.2 0
    endloop
  endfacet
  facet normal 0 0 1
    outer loop
      vertex 4.68605 -106.2 0
      vertex -1.87607 -70 0
      vertex 4.06309 -106.279 0
    endloop
  endfacet
  facet normal 0 0 1
    outer loop
      vertex 4.06309 -106.279 0
      vertex -1.87607 -70 0
      vertex 3.45492 -106.435 0
    endloop
  endfacet
  facet normal 0 0 1
    outer loop
      vertex 3.45492 -106.435 0
      vertex -1.87607 -70 0
      vertex 2.8711 -106.666 0
    endloop
  endfacet
  facet normal 0 0 1
    outer loop
      vertex 2.8711 -106.666 0
      vertex -1.87607 -70 0
      vertex 2.32087 -106.968 0
    endloop
  endfacet
  facet normal 0 0 1
    outer loop
      vertex 2.32087 -106.968 0
      vertex -1.87607 -70 0
      vertex 1.81288 -107.337 0
    endloop
  endfacet
  facet normal 0 0 1
    outer loop
      vertex 1.81288 -107.337 0
      vertex -1.87607 -70 0
      vertex 1.35516 -107.767 0
    endloop
  endfacet
  facet normal 0 0 1
    outer loop
      vertex -1.87607 -115.094 0
      vertex 0 -111.19 0
      vertex 0.0394268 -110.563 0
    endloop
  endfacet
  facet normal 0 0 1
    outer loop
      vertex -1.87607 -115.094 0
      vertex 0.0394268 -110.563 0
      vertex 0.157084 -109.947 0
    endloop
  endfacet
  facet normal 0 0 1
    outer loop
      vertex 0 -111.19 0
      vertex -1.87607 -115.094 0
      vertex -1.334 -116.463 0
    endloop
  endfacet
  facet normal 0 0 1
    outer loop
      vertex -1.334 -116.463 0
      vertex -1.87607 -115.094 0
      vertex -1.49409 -116.27 0
    endloop
  endfacet
  facet normal 0 0 1
    outer loop
      vertex -1.49409 -116.27 0
      vertex -1.87607 -115.094 0
      vertex -1.62868 -116.058 0
    endloop
  endfacet
  facet normal 0 0 1
    outer loop
      vertex -1.62868 -116.058 0
      vertex -1.87607 -115.094 0
      vertex -1.73561 -115.831 0
    endloop
  endfacet
  facet normal 0 0 1
    outer loop
      vertex -1.87607 -115.094 0
      vertex 0.157084 -109.947 0
      vertex 0.351118 -109.349 0
    endloop
  endfacet
  facet normal 0 0 1
    outer loop
      vertex -1.73561 -115.831 0
      vertex -1.87607 -115.094 0
      vertex -1.81323 -115.592 0
    endloop
  endfacet
  facet normal 0 0 1
    outer loop
      vertex 1.35516 -107.767 0
      vertex -1.87607 -70 0
      vertex 0.954915 -108.251 0
    endloop
  endfacet
  facet normal 0 0 1
    outer loop
      vertex -1.87607 -70 0
      vertex 0.618467 -108.781 0
      vertex 0.954915 -108.251 0
    endloop
  endfacet
  facet normal 0 0 1
    outer loop
      vertex -1.87607 -70 0
      vertex 0.351118 -109.349 0
      vertex 0.618467 -108.781 0
    endloop
  endfacet
  facet normal 0 0 1
    outer loop
      vertex -1.87607 -115.094 0
      vertex 0.351118 -109.349 0
      vertex -1.87607 -70 0
    endloop
  endfacet
  facet normal 0 0 1
    outer loop
      vertex -1.81323 -115.592 0
      vertex -1.87607 -115.094 0
      vertex -1.86029 -115.345 0
    endloop
  endfacet
  facet normal -0 0 1
    outer loop
      vertex 49.5 -70 0
      vertex 80 -85 0
      vertex 80 -70 0
    endloop
  endfacet
  facet normal 0 0 1
    outer loop
      vertex 80 -85 0
      vertex 47.8 -75 0
      vertex 80 -104 0
    endloop
  endfacet
  facet normal 0 0 1
    outer loop
      vertex 80 -104 0
      vertex 79.2332 -126.712 0
      vertex 80 -127.069 0
    endloop
  endfacet
  facet normal 0 0 1
    outer loop
      vertex 80 -85 0
      vertex 49.5 -70 0
      vertex 47.8 -75 0
    endloop
  endfacet
  facet normal 0 0 1
    outer loop
      vertex 10 -111.19 0
      vertex 80 -104 0
      vertex 47.8 -75 0
    endloop
  endfacet
  facet normal 0 0 1
    outer loop
      vertex 9.96057 -110.563 0
      vertex 47.8 -75 0
      vertex 34.2 -75 0
    endloop
  endfacet
  facet normal -0 0 1
    outer loop
      vertex -1.87607 -70 0
      vertex 34.2 -75 0
      vertex 32.5 -70 0
    endloop
  endfacet
  facet normal 0 0 1
    outer loop
      vertex 9.96057 -111.817 0
      vertex 80 -104 0
      vertex 10 -111.19 0
    endloop
  endfacet
  facet normal 0 0 1
    outer loop
      vertex 80 -104 0
      vertex 9.96057 -111.817 0
      vertex 79.2332 -126.712 0
    endloop
  endfacet
  facet normal -0 0 1
    outer loop
      vertex 9.84292 -112.433 0
      vertex 79.2332 -126.712 0
      vertex 9.96057 -111.817 0
    endloop
  endfacet
  facet normal 0 0 1
    outer loop
      vertex 9.61957 -126.712 0
      vertex 9.84292 -112.433 0
      vertex 9.64888 -113.031 0
    endloop
  endfacet
  facet normal 0 0 1
    outer loop
      vertex 9.84292 -112.433 0
      vertex 9.61957 -126.712 0
      vertex 79.2332 -126.712 0
    endloop
  endfacet
  facet normal -0 0 1
    outer loop
      vertex 9.38153 -113.599 0
      vertex 9.61957 -126.712 0
      vertex 9.64888 -113.031 0
    endloop
  endfacet
  facet normal -0 0 1
    outer loop
      vertex 9.04508 -114.129 0
      vertex 9.61957 -126.712 0
      vertex 9.38153 -113.599 0
    endloop
  endfacet
  facet normal -0 0 1
    outer loop
      vertex 8.64484 -114.613 0
      vertex 9.61957 -126.712 0
      vertex 9.04508 -114.129 0
    endloop
  endfacet
  facet normal -0 0 1
    outer loop
      vertex 8.18712 -115.043 0
      vertex 9.61957 -126.712 0
      vertex 8.64484 -114.613 0
    endloop
  endfacet
  facet normal -0 -0 1
    outer loop
      vertex 8.28722 -126.085 0
      vertex 9.61957 -126.712 0
      vertex 8.18712 -115.043 0
    endloop
  endfacet
  facet normal 0 0 1
    outer loop
      vertex 9.61957 -126.712 0
      vertex 8.28722 -126.085 0
      vertex 9.37039 -126.68 0
    endloop
  endfacet
  facet normal 0 0 1
    outer loop
      vertex 9.37039 -126.68 0
      vertex 8.28722 -126.085 0
      vertex 9.12712 -126.618 0
    endloop
  endfacet
  facet normal 0 0 1
    outer loop
      vertex 9.12712 -126.618 0
      vertex 8.28722 -126.085 0
      vertex 8.8936 -126.525 0
    endloop
  endfacet
  facet normal 0 0 1
    outer loop
      vertex 8.67351 -126.404 0
      vertex 8.28722 -126.085 0
      vertex 8.47031 -126.257 0
    endloop
  endfacet
  facet normal 0 0 1
    outer loop
      vertex 8.8936 -126.525 0
      vertex 8.28722 -126.085 0
      vertex 8.67351 -126.404 0
    endloop
  endfacet
  facet normal -0 0 1
    outer loop
      vertex 7.67913 -115.412 0
      vertex 8.28722 -126.085 0
      vertex 8.18712 -115.043 0
    endloop
  endfacet
  facet normal -0 0 1
    outer loop
      vertex 7.1289 -115.714 0
      vertex 8.28722 -126.085 0
      vertex 7.67913 -115.412 0
    endloop
  endfacet
  facet normal -0 0 1
    outer loop
      vertex 6.54508 -115.945 0
      vertex 8.28722 -126.085 0
      vertex 7.1289 -115.714 0
    endloop
  endfacet
  facet normal -0 0 1
    outer loop
      vertex 5.93691 -116.101 0
      vertex 8.28722 -126.085 0
      vertex 6.54508 -115.945 0
    endloop
  endfacet
  facet normal -0 0 1
    outer loop
      vertex 5.31395 -116.18 0
      vertex 8.28722 -126.085 0
      vertex 5.93691 -116.101 0
    endloop
  endfacet
  facet normal -0 0 1
    outer loop
      vertex 4.68605 -116.18 0
      vertex 8.28722 -126.085 0
      vertex 5.31395 -116.18 0
    endloop
  endfacet
  facet normal 0 0 1
    outer loop
      vertex 4.06309 -116.101 0
      vertex 8.28722 -126.085 0
      vertex 4.68605 -116.18 0
    endloop
  endfacet
  facet normal 0 0 1
    outer loop
      vertex 3.45492 -115.945 0
      vertex 8.28722 -126.085 0
      vertex 4.06309 -116.101 0
    endloop
  endfacet
  facet normal 0 0 1
    outer loop
      vertex -1.334 -116.463 0
      vertex 3.45492 -115.945 0
      vertex 2.8711 -115.714 0
    endloop
  endfacet
  facet normal 0 0 1
    outer loop
      vertex -1.334 -116.463 0
      vertex 2.8711 -115.714 0
      vertex 2.32087 -115.412 0
    endloop
  endfacet
  facet normal 0 0 1
    outer loop
      vertex -1.334 -116.463 0
      vertex 2.32087 -115.412 0
      vertex 1.81288 -115.043 0
    endloop
  endfacet
  facet normal 0 0 1
    outer loop
      vertex -1.334 -116.463 0
      vertex 1.81288 -115.043 0
      vertex 1.35516 -114.613 0
    endloop
  endfacet
  facet normal 0 0 1
    outer loop
      vertex -1.334 -116.463 0
      vertex 1.35516 -114.613 0
      vertex 0.954915 -114.129 0
    endloop
  endfacet
  facet normal 0 0 1
    outer loop
      vertex -1.334 -116.463 0
      vertex 0.954915 -114.129 0
      vertex 0.618467 -113.599 0
    endloop
  endfacet
  facet normal 0 0 1
    outer loop
      vertex 3.45492 -115.945 0
      vertex -1.334 -116.463 0
      vertex 8.28722 -126.085 0
    endloop
  endfacet
  facet normal 0 0 1
    outer loop
      vertex 0.351118 -113.031 0
      vertex -1.334 -116.463 0
      vertex 0.618467 -113.599 0
    endloop
  endfacet
  facet normal 0 0 1
    outer loop
      vertex 0.157084 -112.433 0
      vertex -1.334 -116.463 0
      vertex 0.351118 -113.031 0
    endloop
  endfacet
  facet normal 0 0 1
    outer loop
      vertex 0.0394268 -111.817 0
      vertex -1.334 -116.463 0
      vertex 0.157084 -112.433 0
    endloop
  endfacet
  facet normal 0 0 1
    outer loop
      vertex -1.334 -116.463 0
      vertex 0.0394268 -111.817 0
      vertex 0 -111.19 0
    endloop
  endfacet
  facet normal 0 0 1
    outer loop
      vertex 80 -85 0
      vertex 85 -102.1 0
      vertex 85 -86.9 0
    endloop
  endfacet
  facet normal 0 0 1
    outer loop
      vertex 85 -102.1 0
      vertex 80 -85 0
      vertex 80 -104 0
    endloop
  endfacet
  facet normal 0 0 1
    outer loop
      vertex -3.37607 -115.094 15
      vertex -1.87607 -115.094 15
      vertex -1.87607 -70 15
    endloop
  endfacet
  facet normal 0 -0 1
    outer loop
      vertex -3.34846 -115.533 15
      vertex -1.87607 -115.094 15
      vertex -3.37607 -115.094 15
    endloop
  endfacet
  facet normal 0 0 1
    outer loop
      vertex -1.87607 -115.094 15
      vertex -2.70763 -117.152 15
      vertex -2.42744 -117.49 15
    endloop
  endfacet
  facet normal 0 0 1
    outer loop
      vertex -1.87607 -115.094 15
      vertex -2.94313 -116.78 15
      vertex -2.70763 -117.152 15
    endloop
  endfacet
  facet normal 0 0 1
    outer loop
      vertex -1.87607 -115.094 15
      vertex -3.13028 -116.383 15
      vertex -2.94313 -116.78 15
    endloop
  endfacet
  facet normal 0 0 1
    outer loop
      vertex -1.87607 -115.094 15
      vertex -3.2661 -115.965 15
      vertex -3.13028 -116.383 15
    endloop
  endfacet
  facet normal 0 0 1
    outer loop
      vertex -3.37607 -115.094 15
      vertex -1.87607 -70 15
      vertex -3.37607 -70 15
    endloop
  endfacet
  facet normal 0 0 1
    outer loop
      vertex -1.87607 -115.094 15
      vertex -3.34846 -115.533 15
      vertex -3.2661 -115.965 15
    endloop
  endfacet
  facet normal 0 0 1
    outer loop
      vertex 78.8944 -128.209 15
      vertex 80 -127.069 15
      vertex 79.2332 -126.712 15
    endloop
  endfacet
  facet normal 0 0 1
    outer loop
      vertex 80 -127.069 15
      vertex 78.8944 -128.209 15
      vertex 80 -128.724 15
    endloop
  endfacet
  facet normal -0 0 1
    outer loop
      vertex 9.61957 -126.712 15
      vertex 78.8944 -128.209 15
      vertex 79.2332 -126.712 15
    endloop
  endfacet
  facet normal 0 0 1
    outer loop
      vertex 9.61957 -126.712 15
      vertex 9.52539 -128.209 15
      vertex 78.8944 -128.209 15
    endloop
  endfacet
  facet normal 0 0 1
    outer loop
      vertex 9.37039 -126.68 15
      vertex 9.52539 -128.209 15
      vertex 9.61957 -126.712 15
    endloop
  endfacet
  facet normal 0 0 1
    outer loop
      vertex 9.08932 -128.154 15
      vertex 9.37039 -126.68 15
      vertex 9.12712 -126.618 15
    endloop
  endfacet
  facet normal 0 0 1
    outer loop
      vertex 9.37039 -126.68 15
      vertex 9.08932 -128.154 15
      vertex 9.52539 -128.209 15
    endloop
  endfacet
  facet normal 0 0 1
    outer loop
      vertex 8.66359 -128.044 15
      vertex 9.12712 -126.618 15
      vertex 8.8936 -126.525 15
    endloop
  endfacet
  facet normal 0 0 1
    outer loop
      vertex 8.25493 -127.882 15
      vertex 8.8936 -126.525 15
      vertex 8.67351 -126.404 15
    endloop
  endfacet
  facet normal 0 0 1
    outer loop
      vertex 9.12712 -126.618 15
      vertex 8.66359 -128.044 15
      vertex 9.08932 -128.154 15
    endloop
  endfacet
  facet normal 0 0 1
    outer loop
      vertex 7.86977 -127.671 15
      vertex 8.67351 -126.404 15
      vertex 8.47031 -126.257 15
    endloop
  endfacet
  facet normal 0 0 1
    outer loop
      vertex 7.51418 -127.412 15
      vertex 8.47031 -126.257 15
      vertex 8.28722 -126.085 15
    endloop
  endfacet
  facet normal 0 0 1
    outer loop
      vertex 8.8936 -126.525 15
      vertex 8.25493 -127.882 15
      vertex 8.66359 -128.044 15
    endloop
  endfacet
  facet normal 0 0 1
    outer loop
      vertex 8.67351 -126.404 15
      vertex 7.86977 -127.671 15
      vertex 8.25493 -127.882 15
    endloop
  endfacet
  facet normal 0 0 1
    outer loop
      vertex 8.47031 -126.257 15
      vertex 7.51418 -127.412 15
      vertex 7.86977 -127.671 15
    endloop
  endfacet
  facet normal 0 0 1
    outer loop
      vertex 8.28722 -126.085 15
      vertex 7.19377 -127.111 15
      vertex 7.51418 -127.412 15
    endloop
  endfacet
  facet normal 0 0 1
    outer loop
      vertex -1.334 -116.463 15
      vertex 7.19377 -127.111 15
      vertex 8.28722 -126.085 15
    endloop
  endfacet
  facet normal 0 0 1
    outer loop
      vertex -2.42744 -117.49 15
      vertex -1.334 -116.463 15
      vertex -1.49409 -116.27 15
    endloop
  endfacet
  facet normal 0 0 1
    outer loop
      vertex -1.334 -116.463 15
      vertex -2.42744 -117.49 15
      vertex 7.19377 -127.111 15
    endloop
  endfacet
  facet normal 0 0 1
    outer loop
      vertex -1.62868 -116.058 15
      vertex -2.42744 -117.49 15
      vertex -1.49409 -116.27 15
    endloop
  endfacet
  facet normal 0 0 1
    outer loop
      vertex -1.73561 -115.831 15
      vertex -2.42744 -117.49 15
      vertex -1.62868 -116.058 15
    endloop
  endfacet
  facet normal 0 0 1
    outer loop
      vertex -1.81323 -115.592 15
      vertex -2.42744 -117.49 15
      vertex -1.73561 -115.831 15
    endloop
  endfacet
  facet normal 0 0 1
    outer loop
      vertex -1.86029 -115.345 15
      vertex -2.42744 -117.49 15
      vertex -1.81323 -115.592 15
    endloop
  endfacet
  facet normal 0 0 1
    outer loop
      vertex -2.42744 -117.49 15
      vertex -1.86029 -115.345 15
      vertex -1.87607 -115.094 15
    endloop
  endfacet
  facet normal -1 0 0
    outer loop
      vertex -3.37607 -115.094 -1
      vertex -3.37607 -70 15
      vertex -3.37607 -70 -1
    endloop
  endfacet
  facet normal -1 -0 0
    outer loop
      vertex -3.37607 -70 15
      vertex -3.37607 -115.094 -1
      vertex -3.37607 -115.094 15
    endloop
  endfacet
  facet normal -0.998026 -0.0628019 0
    outer loop
      vertex -3.34846 -115.533 -1
      vertex -3.37607 -115.094 15
      vertex -3.37607 -115.094 -1
    endloop
  endfacet
  facet normal -0.998026 -0.0628019 0
    outer loop
      vertex -3.37607 -115.094 15
      vertex -3.34846 -115.533 -1
      vertex -3.34846 -115.533 15
    endloop
  endfacet
  facet normal -0.982284 -0.187396 0
    outer loop
      vertex -3.2661 -115.965 -1
      vertex -3.34846 -115.533 15
      vertex -3.34846 -115.533 -1
    endloop
  endfacet
  facet normal -0.982284 -0.187396 0
    outer loop
      vertex -3.34846 -115.533 15
      vertex -3.2661 -115.965 -1
      vertex -3.2661 -115.965 15
    endloop
  endfacet
  facet normal -0.951058 -0.309011 0
    outer loop
      vertex -3.13028 -116.383 -1
      vertex -3.2661 -115.965 15
      vertex -3.2661 -115.965 -1
    endloop
  endfacet
  facet normal -0.951058 -0.309011 0
    outer loop
      vertex -3.2661 -115.965 15
      vertex -3.13028 -116.383 -1
      vertex -3.13028 -116.383 15
    endloop
  endfacet
  facet normal -0.904824 -0.425785 0
    outer loop
      vertex -2.94313 -116.78 -1
      vertex -3.13028 -116.383 15
      vertex -3.13028 -116.383 -1
    endloop
  endfacet
  facet normal -0.904824 -0.425785 0
    outer loop
      vertex -3.13028 -116.383 15
      vertex -2.94313 -116.78 -1
      vertex -2.94313 -116.78 15
    endloop
  endfacet
  facet normal -0.844337 -0.535813 0
    outer loop
      vertex -2.70763 -117.152 -1
      vertex -2.94313 -116.78 15
      vertex -2.94313 -116.78 -1
    endloop
  endfacet
  facet normal -0.844337 -0.535813 0
    outer loop
      vertex -2.94313 -116.78 15
      vertex -2.70763 -117.152 -1
      vertex -2.70763 -117.152 15
    endloop
  endfacet
  facet normal -0.770501 -0.637438 0
    outer loop
      vertex -2.42744 -117.49 -1
      vertex -2.70763 -117.152 15
      vertex -2.70763 -117.152 -1
    endloop
  endfacet
  facet normal -0.770501 -0.637438 0
    outer loop
      vertex -2.70763 -117.152 15
      vertex -2.42744 -117.49 -1
      vertex -2.42744 -117.49 15
    endloop
  endfacet
  facet normal -0.707107 -0.707107 0
    outer loop
      vertex 7.19377 -127.111 -1
      vertex -2.42744 -117.49 15
      vertex -2.42744 -117.49 -1
    endloop
  endfacet
  facet normal -0.707107 -0.707107 0
    outer loop
      vertex -2.42744 -117.49 15
      vertex 7.19377 -127.111 -1
      vertex 7.19377 -127.111 15
    endloop
  endfacet
  facet normal -0.684558 -0.728959 0
    outer loop
      vertex 7.19377 -127.111 -1
      vertex 7.51418 -127.412 15
      vertex 7.19377 -127.111 15
    endloop
  endfacet
  facet normal -0.684558 -0.728959 -0
    outer loop
      vertex 7.51418 -127.412 15
      vertex 7.19377 -127.111 -1
      vertex 7.51418 -127.412 -1
    endloop
  endfacet
  facet normal -0.587777 -0.809023 0
    outer loop
      vertex 7.51418 -127.412 -1
      vertex 7.86977 -127.671 15
      vertex 7.51418 -127.412 15
    endloop
  endfacet
  facet normal -0.587777 -0.809023 -0
    outer loop
      vertex 7.86977 -127.671 15
      vertex 7.51418 -127.412 -1
      vertex 7.86977 -127.671 -1
    endloop
  endfacet
  facet normal -0.481756 -0.876305 0
    outer loop
      vertex 7.86977 -127.671 -1
      vertex 8.25493 -127.882 15
      vertex 7.86977 -127.671 15
    endloop
  endfacet
  facet normal -0.481756 -0.876305 -0
    outer loop
      vertex 8.25493 -127.882 15
      vertex 7.86977 -127.671 -1
      vertex 8.25493 -127.882 -1
    endloop
  endfacet
  facet normal -0.368132 -0.929773 0
    outer loop
      vertex 8.25493 -127.882 -1
      vertex 8.66359 -128.044 15
      vertex 8.25493 -127.882 15
    endloop
  endfacet
  facet normal -0.368132 -0.929773 -0
    outer loop
      vertex 8.66359 -128.044 15
      vertex 8.25493 -127.882 -1
      vertex 8.66359 -128.044 -1
    endloop
  endfacet
  facet normal -0.248698 -0.968581 0
    outer loop
      vertex 8.66359 -128.044 -1
      vertex 9.08932 -128.154 15
      vertex 8.66359 -128.044 15
    endloop
  endfacet
  facet normal -0.248698 -0.968581 -0
    outer loop
      vertex 9.08932 -128.154 15
      vertex 8.66359 -128.044 -1
      vertex 9.08932 -128.154 -1
    endloop
  endfacet
  facet normal -0.125325 -0.992116 0
    outer loop
      vertex 9.08932 -128.154 -1
      vertex 9.52539 -128.209 15
      vertex 9.08932 -128.154 15
    endloop
  endfacet
  facet normal -0.125325 -0.992116 -0
    outer loop
      vertex 9.52539 -128.209 15
      vertex 9.08932 -128.154 -1
      vertex 9.52539 -128.209 -1
    endloop
  endfacet
  facet normal 0 -1 0
    outer loop
      vertex 9.52539 -128.209 -1
      vertex 78.8944 -128.209 15
      vertex 9.52539 -128.209 15
    endloop
  endfacet
  facet normal 0 -1 -0
    outer loop
      vertex 78.8944 -128.209 15
      vertex 9.52539 -128.209 -1
      vertex 78.8944 -128.209 -1
    endloop
  endfacet
  facet normal -0.422554 -0.906338 0
    outer loop
      vertex 78.8944 -128.209 -1
      vertex 80 -128.724 15
      vertex 78.8944 -128.209 15
    endloop
  endfacet
  facet normal -0.422554 -0.906338 -0
    outer loop
      vertex 80 -128.724 15
      vertex 78.8944 -128.209 -1
      vertex 80 -128.724 -1
    endloop
  endfacet
  facet normal 0.422554 0.906338 -0
    outer loop
      vertex 80 -127.069 0
      vertex 79.2332 -126.712 15
      vertex 80 -127.069 15
    endloop
  endfacet
  facet normal 0.422554 0.906338 0
    outer loop
      vertex 79.2332 -126.712 15
      vertex 80 -127.069 0
      vertex 79.2332 -126.712 0
    endloop
  endfacet
  facet normal 0 1 -0
    outer loop
      vertex 79.2332 -126.712 0
      vertex 9.61957 -126.712 15
      vertex 79.2332 -126.712 15
    endloop
  endfacet
  facet normal 0 1 0
    outer loop
      vertex 9.61957 -126.712 15
      vertex 79.2332 -126.712 0
      vertex 9.61957 -126.712 0
    endloop
  endfacet
  facet normal 0.125336 0.992114 -0
    outer loop
      vertex 9.61957 -126.712 0
      vertex 9.37039 -126.68 15
      vertex 9.61957 -126.712 15
    endloop
  endfacet
  facet normal 0.125336 0.992114 0
    outer loop
      vertex 9.37039 -126.68 15
      vertex 9.61957 -126.712 0
      vertex 9.37039 -126.68 0
    endloop
  endfacet
  facet normal 0.24872 0.968575 -0
    outer loop
      vertex 9.37039 -126.68 0
      vertex 9.12712 -126.618 15
      vertex 9.37039 -126.68 15
    endloop
  endfacet
  facet normal 0.24872 0.968575 0
    outer loop
      vertex 9.12712 -126.618 15
      vertex 9.37039 -126.68 0
      vertex 9.12712 -126.618 0
    endloop
  endfacet
  facet normal 0.36811 0.929782 -0
    outer loop
      vertex 9.12712 -126.618 0
      vertex 8.8936 -126.525 15
      vertex 9.12712 -126.618 15
    endloop
  endfacet
  facet normal 0.36811 0.929782 0
    outer loop
      vertex 8.8936 -126.525 15
      vertex 9.12712 -126.618 0
      vertex 8.8936 -126.525 0
    endloop
  endfacet
  facet normal 0.481769 0.876298 -0
    outer loop
      vertex 8.8936 -126.525 0
      vertex 8.67351 -126.404 15
      vertex 8.8936 -126.525 15
    endloop
  endfacet
  facet normal 0.481769 0.876298 0
    outer loop
      vertex 8.67351 -126.404 15
      vertex 8.8936 -126.525 0
      vertex 8.67351 -126.404 0
    endloop
  endfacet
  facet normal 0.587771 0.809028 -0
    outer loop
      vertex 8.67351 -126.404 0
      vertex 8.47031 -126.257 15
      vertex 8.67351 -126.404 15
    endloop
  endfacet
  facet normal 0.587771 0.809028 0
    outer loop
      vertex 8.47031 -126.257 15
      vertex 8.67351 -126.404 0
      vertex 8.47031 -126.257 0
    endloop
  endfacet
  facet normal 0.684553 0.728963 -0
    outer loop
      vertex 8.47031 -126.257 0
      vertex 8.28722 -126.085 15
      vertex 8.47031 -126.257 15
    endloop
  endfacet
  facet normal 0.684553 0.728963 0
    outer loop
      vertex 8.28722 -126.085 15
      vertex 8.47031 -126.257 0
      vertex 8.28722 -126.085 0
    endloop
  endfacet
  facet normal 0.707107 0.707107 0
    outer loop
      vertex 8.28722 -126.085 15
      vertex -1.334 -116.463 0
      vertex -1.334 -116.463 15
    endloop
  endfacet
  facet normal 0.707107 0.707107 0
    outer loop
      vertex -1.334 -116.463 0
      vertex 8.28722 -126.085 15
      vertex 8.28722 -126.085 0
    endloop
  endfacet
  facet normal 0.770497 0.637443 0
    outer loop
      vertex -1.334 -116.463 15
      vertex -1.49409 -116.27 0
      vertex -1.49409 -116.27 15
    endloop
  endfacet
  facet normal 0.770497 0.637443 0
    outer loop
      vertex -1.49409 -116.27 0
      vertex -1.334 -116.463 15
      vertex -1.334 -116.463 0
    endloop
  endfacet
  facet normal 0.844326 0.535829 0
    outer loop
      vertex -1.49409 -116.27 15
      vertex -1.62868 -116.058 0
      vertex -1.62868 -116.058 15
    endloop
  endfacet
  facet normal 0.844326 0.535829 0
    outer loop
      vertex -1.62868 -116.058 0
      vertex -1.49409 -116.27 15
      vertex -1.49409 -116.27 0
    endloop
  endfacet
  facet normal 0.904841 0.42575 0
    outer loop
      vertex -1.62868 -116.058 15
      vertex -1.73561 -115.831 0
      vertex -1.73561 -115.831 15
    endloop
  endfacet
  facet normal 0.904841 0.42575 0
    outer loop
      vertex -1.73561 -115.831 0
      vertex -1.62868 -116.058 15
      vertex -1.62868 -116.058 0
    endloop
  endfacet
  facet normal 0.951044 0.309056 0
    outer loop
      vertex -1.73561 -115.831 15
      vertex -1.81323 -115.592 0
      vertex -1.81323 -115.592 15
    endloop
  endfacet
  facet normal 0.951044 0.309056 0
    outer loop
      vertex -1.81323 -115.592 0
      vertex -1.73561 -115.831 15
      vertex -1.73561 -115.831 0
    endloop
  endfacet
  facet normal 0.982292 0.187358 0
    outer loop
      vertex -1.81323 -115.592 15
      vertex -1.86029 -115.345 0
      vertex -1.86029 -115.345 15
    endloop
  endfacet
  facet normal 0.982292 0.187358 0
    outer loop
      vertex -1.86029 -115.345 0
      vertex -1.81323 -115.592 15
      vertex -1.81323 -115.592 0
    endloop
  endfacet
  facet normal 0.998025 0.0628208 0
    outer loop
      vertex -1.86029 -115.345 15
      vertex -1.87607 -115.094 0
      vertex -1.87607 -115.094 15
    endloop
  endfacet
  facet normal 0.998025 0.0628208 0
    outer loop
      vertex -1.87607 -115.094 0
      vertex -1.86029 -115.345 15
      vertex -1.86029 -115.345 0
    endloop
  endfacet
  facet normal 1 -0 0
    outer loop
      vertex -1.87607 -115.094 15
      vertex -1.87607 -70 0
      vertex -1.87607 -70 15
    endloop
  endfacet
  facet normal 1 0 0
    outer loop
      vertex -1.87607 -70 0
      vertex -1.87607 -115.094 15
      vertex -1.87607 -115.094 0
    endloop
  endfacet
  facet normal 0 0 -1
    outer loop
      vertex 80 -104 -1
      vertex 7.7432 -111.537 -1
      vertex 7.765 -111.19 -1
    endloop
  endfacet
  facet normal 0 0 -1
    outer loop
      vertex 9.52539 -128.209 -1
      vertex 7.67813 -111.878 -1
      vertex 7.7432 -111.537 -1
    endloop
  endfacet
  facet normal 0 0 -1
    outer loop
      vertex 9.52539 -128.209 -1
      vertex 7.57083 -112.208 -1
      vertex 7.67813 -111.878 -1
    endloop
  endfacet
  facet normal 0 0 -1
    outer loop
      vertex 7.19377 -127.111 -1
      vertex 7.86977 -127.671 -1
      vertex 7.51418 -127.412 -1
    endloop
  endfacet
  facet normal 0 0 -1
    outer loop
      vertex 9.52539 -128.209 -1
      vertex 7.42299 -112.522 -1
      vertex 7.57083 -112.208 -1
    endloop
  endfacet
  facet normal 0 0 -1
    outer loop
      vertex 9.52539 -128.209 -1
      vertex 7.23693 -112.815 -1
      vertex 7.42299 -112.522 -1
    endloop
  endfacet
  facet normal 0 0 -1
    outer loop
      vertex 6.76248 -113.32 -1
      vertex 9.52539 -128.209 -1
      vertex 7.19377 -127.111 -1
    endloop
  endfacet
  facet normal 0 0 -1
    outer loop
      vertex 9.52539 -128.209 -1
      vertex 7.0156 -113.083 -1
      vertex 7.23693 -112.815 -1
    endloop
  endfacet
  facet normal 0 0 -1
    outer loop
      vertex 9.52539 -128.209 -1
      vertex 6.76248 -113.32 -1
      vertex 7.0156 -113.083 -1
    endloop
  endfacet
  facet normal 0 0 -1
    outer loop
      vertex 7.19377 -127.111 -1
      vertex 6.48156 -113.525 -1
      vertex 6.76248 -113.32 -1
    endloop
  endfacet
  facet normal 0 0 -1
    outer loop
      vertex 7.19377 -127.111 -1
      vertex 6.17728 -113.692 -1
      vertex 6.48156 -113.525 -1
    endloop
  endfacet
  facet normal 0 0 -1
    outer loop
      vertex 7.19377 -127.111 -1
      vertex 5.85443 -113.82 -1
      vertex 6.17728 -113.692 -1
    endloop
  endfacet
  facet normal 0 0 -1
    outer loop
      vertex 7.19377 -127.111 -1
      vertex 5.51811 -113.906 -1
      vertex 5.85443 -113.82 -1
    endloop
  endfacet
  facet normal 0 0 -1
    outer loop
      vertex 7.19377 -127.111 -1
      vertex 5.17362 -113.95 -1
      vertex 5.51811 -113.906 -1
    endloop
  endfacet
  facet normal 0 0 -1
    outer loop
      vertex 7.19377 -127.111 -1
      vertex 4.82638 -113.95 -1
      vertex 5.17362 -113.95 -1
    endloop
  endfacet
  facet normal 0 0 -1
    outer loop
      vertex 7.19377 -127.111 -1
      vertex 4.48189 -113.906 -1
      vertex 4.82638 -113.95 -1
    endloop
  endfacet
  facet normal 0 0 -1
    outer loop
      vertex -2.42744 -117.49 -1
      vertex 4.48189 -113.906 -1
      vertex 7.19377 -127.111 -1
    endloop
  endfacet
  facet normal -0 0 -1
    outer loop
      vertex 4.48189 -113.906 -1
      vertex -2.42744 -117.49 -1
      vertex 4.14557 -113.82 -1
    endloop
  endfacet
  facet normal -0 0 -1
    outer loop
      vertex 4.14557 -113.82 -1
      vertex -2.42744 -117.49 -1
      vertex 3.82272 -113.692 -1
    endloop
  endfacet
  facet normal -0 0 -1
    outer loop
      vertex 3.82272 -113.692 -1
      vertex -2.42744 -117.49 -1
      vertex 3.51844 -113.525 -1
    endloop
  endfacet
  facet normal -0 0 -1
    outer loop
      vertex 3.51844 -113.525 -1
      vertex -2.42744 -117.49 -1
      vertex 3.23752 -113.32 -1
    endloop
  endfacet
  facet normal -0 0 -1
    outer loop
      vertex 3.23752 -113.32 -1
      vertex -2.42744 -117.49 -1
      vertex 2.9844 -113.083 -1
    endloop
  endfacet
  facet normal -0 0 -1
    outer loop
      vertex 2.9844 -113.083 -1
      vertex -2.42744 -117.49 -1
      vertex 2.76307 -112.815 -1
    endloop
  endfacet
  facet normal 0 0 -1
    outer loop
      vertex -3.37607 -115.094 -1
      vertex 2.76307 -112.815 -1
      vertex -2.42744 -117.49 -1
    endloop
  endfacet
  facet normal -0 0 -1
    outer loop
      vertex 2.76307 -112.815 -1
      vertex -3.37607 -115.094 -1
      vertex 2.57701 -112.522 -1
    endloop
  endfacet
  facet normal -0 0 -1
    outer loop
      vertex 2.32187 -111.878 -1
      vertex -3.37607 -115.094 -1
      vertex 2.2568 -111.537 -1
    endloop
  endfacet
  facet normal -0 0 -1
    outer loop
      vertex 2.42917 -112.208 -1
      vertex -3.37607 -115.094 -1
      vertex 2.32187 -111.878 -1
    endloop
  endfacet
  facet normal -0 0 -1
    outer loop
      vertex 2.57701 -112.522 -1
      vertex -3.37607 -115.094 -1
      vertex 2.42917 -112.208 -1
    endloop
  endfacet
  facet normal 0 0 -1
    outer loop
      vertex 78.8944 -128.209 -1
      vertex 80 -104 -1
      vertex 80 -128.724 -1
    endloop
  endfacet
  facet normal 0 0 -1
    outer loop
      vertex 7.7432 -111.537 -1
      vertex 80 -104 -1
      vertex 78.8944 -128.209 -1
    endloop
  endfacet
  facet normal 0 0 -1
    outer loop
      vertex 80 -104 -1
      vertex 47.8 -75 -1
      vertex 80 -85 -1
    endloop
  endfacet
  facet normal 0 -0 -1
    outer loop
      vertex 49.5 -70 -1
      vertex 80 -85 -1
      vertex 47.8 -75 -1
    endloop
  endfacet
  facet normal 0 0 -1
    outer loop
      vertex 80 -85 -1
      vertex 49.5 -70 -1
      vertex 80 -70 -1
    endloop
  endfacet
  facet normal -0 0 -1
    outer loop
      vertex 80 -104 -1
      vertex 7.765 -111.19 -1
      vertex 47.8 -75 -1
    endloop
  endfacet
  facet normal 0 0 -1
    outer loop
      vertex 7.7432 -111.537 -1
      vertex 78.8944 -128.209 -1
      vertex 9.52539 -128.209 -1
    endloop
  endfacet
  facet normal 0 0 -1
    outer loop
      vertex 7.7432 -110.843 -1
      vertex 47.8 -75 -1
      vertex 7.765 -111.19 -1
    endloop
  endfacet
  facet normal 0 0 -1
    outer loop
      vertex 7.86977 -127.671 -1
      vertex 9.52539 -128.209 -1
      vertex 9.08932 -128.154 -1
    endloop
  endfacet
  facet normal 0 0 -1
    outer loop
      vertex 7.86977 -127.671 -1
      vertex 9.08932 -128.154 -1
      vertex 8.66359 -128.044 -1
    endloop
  endfacet
  facet normal 0 0 -1
    outer loop
      vertex 7.86977 -127.671 -1
      vertex 8.66359 -128.044 -1
      vertex 8.25493 -127.882 -1
    endloop
  endfacet
  facet normal 0 0 -1
    outer loop
      vertex 7.19377 -127.111 -1
      vertex 9.52539 -128.209 -1
      vertex 7.86977 -127.671 -1
    endloop
  endfacet
  facet normal -0 0 -1
    outer loop
      vertex 47.8 -75 -1
      vertex 7.7432 -110.843 -1
      vertex 34.2 -75 -1
    endloop
  endfacet
  facet normal 0 0 -1
    outer loop
      vertex 7.67813 -110.502 -1
      vertex 34.2 -75 -1
      vertex 7.7432 -110.843 -1
    endloop
  endfacet
  facet normal 0 0 -1
    outer loop
      vertex 7.57083 -110.172 -1
      vertex 34.2 -75 -1
      vertex 7.67813 -110.502 -1
    endloop
  endfacet
  facet normal 0 0 -1
    outer loop
      vertex 7.42299 -109.858 -1
      vertex 34.2 -75 -1
      vertex 7.57083 -110.172 -1
    endloop
  endfacet
  facet normal 0 0 -1
    outer loop
      vertex 7.23693 -109.565 -1
      vertex 34.2 -75 -1
      vertex 7.42299 -109.858 -1
    endloop
  endfacet
  facet normal 0 0 -1
    outer loop
      vertex 7.0156 -109.297 -1
      vertex 34.2 -75 -1
      vertex 7.23693 -109.565 -1
    endloop
  endfacet
  facet normal 0 0 -1
    outer loop
      vertex 6.76248 -109.06 -1
      vertex 34.2 -75 -1
      vertex 7.0156 -109.297 -1
    endloop
  endfacet
  facet normal 0 0 -1
    outer loop
      vertex 6.48156 -108.855 -1
      vertex 34.2 -75 -1
      vertex 6.76248 -109.06 -1
    endloop
  endfacet
  facet normal 0 0 -1
    outer loop
      vertex 6.17728 -108.688 -1
      vertex 34.2 -75 -1
      vertex 6.48156 -108.855 -1
    endloop
  endfacet
  facet normal 0 0 -1
    outer loop
      vertex 5.85443 -108.56 -1
      vertex 34.2 -75 -1
      vertex 6.17728 -108.688 -1
    endloop
  endfacet
  facet normal 0 0 -1
    outer loop
      vertex -3.37607 -70 -1
      vertex 34.2 -75 -1
      vertex 5.85443 -108.56 -1
    endloop
  endfacet
  facet normal 0 0 -1
    outer loop
      vertex -3.37607 -70 -1
      vertex 5.85443 -108.56 -1
      vertex 5.51811 -108.474 -1
    endloop
  endfacet
  facet normal 0 0 -1
    outer loop
      vertex -3.37607 -70 -1
      vertex 5.51811 -108.474 -1
      vertex 5.17362 -108.43 -1
    endloop
  endfacet
  facet normal 0 0 -1
    outer loop
      vertex -3.37607 -70 -1
      vertex 5.17362 -108.43 -1
      vertex 4.82638 -108.43 -1
    endloop
  endfacet
  facet normal 0 0 -1
    outer loop
      vertex -3.37607 -70 -1
      vertex 4.82638 -108.43 -1
      vertex 4.48189 -108.474 -1
    endloop
  endfacet
  facet normal 0 0 -1
    outer loop
      vertex -3.37607 -70 -1
      vertex 4.48189 -108.474 -1
      vertex 4.14557 -108.56 -1
    endloop
  endfacet
  facet normal 0 0 -1
    outer loop
      vertex -3.37607 -70 -1
      vertex 4.14557 -108.56 -1
      vertex 3.82272 -108.688 -1
    endloop
  endfacet
  facet normal 0 0 -1
    outer loop
      vertex -3.37607 -70 -1
      vertex 3.82272 -108.688 -1
      vertex 3.51844 -108.855 -1
    endloop
  endfacet
  facet normal 0 0 -1
    outer loop
      vertex -3.37607 -70 -1
      vertex 3.51844 -108.855 -1
      vertex 3.23752 -109.06 -1
    endloop
  endfacet
  facet normal 0 0 -1
    outer loop
      vertex -3.37607 -70 -1
      vertex 3.23752 -109.06 -1
      vertex 2.9844 -109.297 -1
    endloop
  endfacet
  facet normal 0 0 -1
    outer loop
      vertex -3.37607 -70 -1
      vertex 2.9844 -109.297 -1
      vertex 2.76307 -109.565 -1
    endloop
  endfacet
  facet normal -0 0 -1
    outer loop
      vertex 2.2568 -111.537 -1
      vertex -3.37607 -115.094 -1
      vertex 2.235 -111.19 -1
    endloop
  endfacet
  facet normal -0 0 -1
    outer loop
      vertex 2.235 -111.19 -1
      vertex -3.37607 -115.094 -1
      vertex 2.2568 -110.843 -1
    endloop
  endfacet
  facet normal -0 0 -1
    outer loop
      vertex 2.2568 -110.843 -1
      vertex -3.37607 -115.094 -1
      vertex 2.32187 -110.502 -1
    endloop
  endfacet
  facet normal -0 0 -1
    outer loop
      vertex 2.32187 -110.502 -1
      vertex -3.37607 -115.094 -1
      vertex 2.42917 -110.172 -1
    endloop
  endfacet
  facet normal -0 0 -1
    outer loop
      vertex 2.42917 -110.172 -1
      vertex -3.37607 -115.094 -1
      vertex 2.57701 -109.858 -1
    endloop
  endfacet
  facet normal 0 0 -1
    outer loop
      vertex -3.37607 -115.094 -1
      vertex -2.42744 -117.49 -1
      vertex -2.70763 -117.152 -1
    endloop
  endfacet
  facet normal 0 0 -1
    outer loop
      vertex -3.37607 -115.094 -1
      vertex -2.70763 -117.152 -1
      vertex -2.94313 -116.78 -1
    endloop
  endfacet
  facet normal -0 0 -1
    outer loop
      vertex 2.57701 -109.858 -1
      vertex -3.37607 -115.094 -1
      vertex 2.76307 -109.565 -1
    endloop
  endfacet
  facet normal 0 0 -1
    outer loop
      vertex -3.37607 -115.094 -1
      vertex -2.94313 -116.78 -1
      vertex -3.13028 -116.383 -1
    endloop
  endfacet
  facet normal 0 0 -1
    outer loop
      vertex -3.37607 -115.094 -1
      vertex -3.13028 -116.383 -1
      vertex -3.2661 -115.965 -1
    endloop
  endfacet
  facet normal 0 0 -1
    outer loop
      vertex -3.37607 -115.094 -1
      vertex -3.2661 -115.965 -1
      vertex -3.34846 -115.533 -1
    endloop
  endfacet
  facet normal 0 0 -1
    outer loop
      vertex -3.37607 -70 -1
      vertex 2.76307 -109.565 -1
      vertex -3.37607 -115.094 -1
    endloop
  endfacet
  facet normal 0 0 -1
    outer loop
      vertex 34.2 -75 -1
      vertex -3.37607 -70 -1
      vertex 32.5 -70 -1
    endloop
  endfacet
  facet normal 0 0 -1
    outer loop
      vertex 80 -104 -1
      vertex 85 -86.9 -1
      vertex 85 -102.1 -1
    endloop
  endfacet
  facet normal -0 0 -1
    outer loop
      vertex 85 -86.9 -1
      vertex 80 -104 -1
      vertex 80 -85 -1
    endloop
  endfacet
  facet normal 0.998027 0.0627905 0
    outer loop
      vertex 10 -111.19 3
      vertex 9.96057 -110.563 0
      vertex 9.96057 -110.563 3
    endloop
  endfacet
  facet normal 0.998027 0.0627905 0
    outer loop
      vertex 9.96057 -110.563 0
      vertex 10 -111.19 3
      vertex 10 -111.19 0
    endloop
  endfacet
  facet normal -0.998027 0.0627905 0
    outer loop
      vertex 0 -111.19 0
      vertex 0.0394268 -110.563 3
      vertex 0.0394268 -110.563 0
    endloop
  endfacet
  facet normal -0.998027 0.0627905 0
    outer loop
      vertex 0.0394268 -110.563 3
      vertex 0 -111.19 0
      vertex 0 -111.19 3
    endloop
  endfacet
  facet normal 0 1 -0
    outer loop
      vertex 5.31395 -106.2 0
      vertex 4.68605 -106.2 3
      vertex 5.31395 -106.2 3
    endloop
  endfacet
  facet normal 0 1 0
    outer loop
      vertex 4.68605 -106.2 3
      vertex 5.31395 -106.2 0
      vertex 4.68605 -106.2 0
    endloop
  endfacet
  facet normal 0 -1 0
    outer loop
      vertex 4.68605 -116.18 0
      vertex 5.31395 -116.18 3
      vertex 4.68605 -116.18 3
    endloop
  endfacet
  facet normal 0 -1 -0
    outer loop
      vertex 5.31395 -116.18 3
      vertex 4.68605 -116.18 0
      vertex 5.31395 -116.18 0
    endloop
  endfacet
  facet normal 0.684548 -0.728968 0
    outer loop
      vertex 8.18712 -115.043 0
      vertex 8.64484 -114.613 3
      vertex 8.18712 -115.043 3
    endloop
  endfacet
  facet normal 0.684548 -0.728968 0
    outer loop
      vertex 8.64484 -114.613 3
      vertex 8.18712 -115.043 0
      vertex 8.64484 -114.613 0
    endloop
  endfacet
  facet normal 0.684548 0.728968 -0
    outer loop
      vertex 8.64484 -107.767 0
      vertex 8.18712 -107.337 3
      vertex 8.64484 -107.767 3
    endloop
  endfacet
  facet normal 0.684548 0.728968 0
    outer loop
      vertex 8.18712 -107.337 3
      vertex 8.64484 -107.767 0
      vertex 8.18712 -107.337 0
    endloop
  endfacet
  facet normal -0.684548 0.728968 0
    outer loop
      vertex 1.81288 -107.337 0
      vertex 1.35516 -107.767 3
      vertex 1.81288 -107.337 3
    endloop
  endfacet
  facet normal -0.684548 0.728968 0
    outer loop
      vertex 1.35516 -107.767 3
      vertex 1.81288 -107.337 0
      vertex 1.35516 -107.767 0
    endloop
  endfacet
  facet normal -0.368126 0.929776 0
    outer loop
      vertex 3.45492 -106.435 0
      vertex 2.8711 -106.666 3
      vertex 3.45492 -106.435 3
    endloop
  endfacet
  facet normal -0.368126 0.929776 0
    outer loop
      vertex 2.8711 -106.666 3
      vertex 3.45492 -106.435 0
      vertex 2.8711 -106.666 0
    endloop
  endfacet
  facet normal 0.904827 0.425779 0
    outer loop
      vertex 9.64888 -109.349 3
      vertex 9.38153 -108.781 0
      vertex 9.38153 -108.781 3
    endloop
  endfacet
  facet normal 0.904827 0.425779 0
    outer loop
      vertex 9.38153 -108.781 0
      vertex 9.64888 -109.349 3
      vertex 9.64888 -109.349 0
    endloop
  endfacet
  facet normal 0.982287 0.187381 0
    outer loop
      vertex 9.96057 -110.563 3
      vertex 9.84292 -109.947 0
      vertex 9.84292 -109.947 3
    endloop
  endfacet
  facet normal 0.982287 0.187381 0
    outer loop
      vertex 9.84292 -109.947 0
      vertex 9.96057 -110.563 3
      vertex 9.96057 -110.563 0
    endloop
  endfacet
  facet normal 0.844329 0.535825 0
    outer loop
      vertex 9.38153 -108.781 3
      vertex 9.04508 -108.251 0
      vertex 9.04508 -108.251 3
    endloop
  endfacet
  facet normal 0.844329 0.535825 0
    outer loop
      vertex 9.04508 -108.251 0
      vertex 9.38153 -108.781 3
      vertex 9.38153 -108.781 0
    endloop
  endfacet
  facet normal 0.368126 0.929776 -0
    outer loop
      vertex 7.1289 -106.666 0
      vertex 6.54508 -106.435 3
      vertex 7.1289 -106.666 3
    endloop
  endfacet
  facet normal 0.368126 0.929776 0
    outer loop
      vertex 6.54508 -106.435 3
      vertex 7.1289 -106.666 0
      vertex 6.54508 -106.435 0
    endloop
  endfacet
  facet normal 0.248685 0.968584 -0
    outer loop
      vertex 6.54508 -106.435 0
      vertex 5.93691 -106.279 3
      vertex 6.54508 -106.435 3
    endloop
  endfacet
  facet normal 0.248685 0.968584 0
    outer loop
      vertex 5.93691 -106.279 3
      vertex 6.54508 -106.435 0
      vertex 5.93691 -106.279 0
    endloop
  endfacet
  facet normal 0.481756 0.876305 -0
    outer loop
      vertex 7.67913 -106.968 0
      vertex 7.1289 -106.666 3
      vertex 7.67913 -106.968 3
    endloop
  endfacet
  facet normal 0.481756 0.876305 0
    outer loop
      vertex 7.1289 -106.666 3
      vertex 7.67913 -106.968 0
      vertex 7.1289 -106.666 0
    endloop
  endfacet
  facet normal -0.904827 0.425779 0
    outer loop
      vertex 0.351118 -109.349 0
      vertex 0.618467 -108.781 3
      vertex 0.618467 -108.781 0
    endloop
  endfacet
  facet normal -0.904827 0.425779 0
    outer loop
      vertex 0.618467 -108.781 3
      vertex 0.351118 -109.349 0
      vertex 0.351118 -109.349 3
    endloop
  endfacet
  facet normal -0.770514 0.637423 0
    outer loop
      vertex 0.954915 -108.251 0
      vertex 1.35516 -107.767 3
      vertex 1.35516 -107.767 0
    endloop
  endfacet
  facet normal -0.770514 0.637423 0
    outer loop
      vertex 1.35516 -107.767 3
      vertex 0.954915 -108.251 0
      vertex 0.954915 -108.251 3
    endloop
  endfacet
  facet normal -0.951056 0.30902 0
    outer loop
      vertex 0.157084 -109.947 0
      vertex 0.351118 -109.349 3
      vertex 0.351118 -109.349 0
    endloop
  endfacet
  facet normal -0.951056 0.30902 0
    outer loop
      vertex 0.351118 -109.349 3
      vertex 0.157084 -109.947 0
      vertex 0.157084 -109.947 3
    endloop
  endfacet
  facet normal -0.125333 0.992115 0
    outer loop
      vertex 4.68605 -106.2 0
      vertex 4.06309 -106.279 3
      vertex 4.68605 -106.2 3
    endloop
  endfacet
  facet normal -0.125333 0.992115 0
    outer loop
      vertex 4.06309 -106.279 3
      vertex 4.68605 -106.2 0
      vertex 4.06309 -106.279 0
    endloop
  endfacet
  facet normal 0.125333 -0.992115 0
    outer loop
      vertex 5.31395 -116.18 0
      vertex 5.93691 -116.101 3
      vertex 5.31395 -116.18 3
    endloop
  endfacet
  facet normal 0.125333 -0.992115 0
    outer loop
      vertex 5.93691 -116.101 3
      vertex 5.31395 -116.18 0
      vertex 5.93691 -116.101 0
    endloop
  endfacet
  facet normal 0.368126 -0.929776 0
    outer loop
      vertex 6.54508 -115.945 0
      vertex 7.1289 -115.714 3
      vertex 6.54508 -115.945 3
    endloop
  endfacet
  facet normal 0.368126 -0.929776 0
    outer loop
      vertex 7.1289 -115.714 3
      vertex 6.54508 -115.945 0
      vertex 7.1289 -115.714 0
    endloop
  endfacet
  facet normal 0.951056 0.30902 0
    outer loop
      vertex 9.84292 -109.947 3
      vertex 9.64888 -109.349 0
      vertex 9.64888 -109.349 3
    endloop
  endfacet
  facet normal 0.951056 0.30902 0
    outer loop
      vertex 9.64888 -109.349 0
      vertex 9.84292 -109.947 3
      vertex 9.84292 -109.947 0
    endloop
  endfacet
  facet normal 0.770514 0.637423 0
    outer loop
      vertex 9.04508 -108.251 3
      vertex 8.64484 -107.767 0
      vertex 8.64484 -107.767 3
    endloop
  endfacet
  facet normal 0.770514 0.637423 0
    outer loop
      vertex 8.64484 -107.767 0
      vertex 9.04508 -108.251 3
      vertex 9.04508 -108.251 0
    endloop
  endfacet
  facet normal 0.125333 0.992115 -0
    outer loop
      vertex 5.93691 -106.279 0
      vertex 5.31395 -106.2 3
      vertex 5.93691 -106.279 3
    endloop
  endfacet
  facet normal 0.125333 0.992115 0
    outer loop
      vertex 5.31395 -106.2 3
      vertex 5.93691 -106.279 0
      vertex 5.31395 -106.2 0
    endloop
  endfacet
  facet normal 0.587784 0.809018 -0
    outer loop
      vertex 8.18712 -107.337 0
      vertex 7.67913 -106.968 3
      vertex 8.18712 -107.337 3
    endloop
  endfacet
  facet normal 0.587784 0.809018 0
    outer loop
      vertex 7.67913 -106.968 3
      vertex 8.18712 -107.337 0
      vertex 7.67913 -106.968 0
    endloop
  endfacet
  facet normal -0.844329 0.535825 0
    outer loop
      vertex 0.618467 -108.781 0
      vertex 0.954915 -108.251 3
      vertex 0.954915 -108.251 0
    endloop
  endfacet
  facet normal -0.844329 0.535825 0
    outer loop
      vertex 0.954915 -108.251 3
      vertex 0.618467 -108.781 0
      vertex 0.618467 -108.781 3
    endloop
  endfacet
  facet normal -0.982287 0.187381 0
    outer loop
      vertex 0.0394268 -110.563 0
      vertex 0.157084 -109.947 3
      vertex 0.157084 -109.947 0
    endloop
  endfacet
  facet normal -0.982287 0.187381 0
    outer loop
      vertex 0.157084 -109.947 3
      vertex 0.0394268 -110.563 0
      vertex 0.0394268 -110.563 3
    endloop
  endfacet
  facet normal 0 0 1
    outer loop
      vertex 7.765 -111.19 3
      vertex 10 -111.19 3
      vertex 9.96057 -110.563 3
    endloop
  endfacet
  facet normal 0 0 1
    outer loop
      vertex 7.7432 -110.843 3
      vertex 9.96057 -110.563 3
      vertex 9.84292 -109.947 3
    endloop
  endfacet
  facet normal 0 0 1
    outer loop
      vertex 10 -111.19 3
      vertex 7.765 -111.19 3
      vertex 9.96057 -111.817 3
    endloop
  endfacet
  facet normal 0 0 1
    outer loop
      vertex 7.67813 -110.502 3
      vertex 9.84292 -109.947 3
      vertex 9.64888 -109.349 3
    endloop
  endfacet
  facet normal -0 0 1
    outer loop
      vertex 7.7432 -111.537 3
      vertex 9.96057 -111.817 3
      vertex 7.765 -111.19 3
    endloop
  endfacet
  facet normal 0 0 1
    outer loop
      vertex 7.57083 -110.172 3
      vertex 9.64888 -109.349 3
      vertex 9.38153 -108.781 3
    endloop
  endfacet
  facet normal 0 0 1
    outer loop
      vertex 9.96057 -111.817 3
      vertex 7.7432 -111.537 3
      vertex 9.84292 -112.433 3
    endloop
  endfacet
  facet normal 0 0 1
    outer loop
      vertex 7.42299 -109.858 3
      vertex 9.38153 -108.781 3
      vertex 9.04508 -108.251 3
    endloop
  endfacet
  facet normal -0 0 1
    outer loop
      vertex 7.67813 -111.878 3
      vertex 9.84292 -112.433 3
      vertex 7.7432 -111.537 3
    endloop
  endfacet
  facet normal 0 0 1
    outer loop
      vertex 7.23693 -109.565 3
      vertex 9.04508 -108.251 3
      vertex 8.64484 -107.767 3
    endloop
  endfacet
  facet normal 0 0 1
    outer loop
      vertex 9.84292 -112.433 3
      vertex 7.67813 -111.878 3
      vertex 9.64888 -113.031 3
    endloop
  endfacet
  facet normal 0 0 1
    outer loop
      vertex 7.0156 -109.297 3
      vertex 8.64484 -107.767 3
      vertex 8.18712 -107.337 3
    endloop
  endfacet
  facet normal -0 0 1
    outer loop
      vertex 7.57083 -112.208 3
      vertex 9.64888 -113.031 3
      vertex 7.67813 -111.878 3
    endloop
  endfacet
  facet normal 0 0 1
    outer loop
      vertex 9.64888 -113.031 3
      vertex 7.57083 -112.208 3
      vertex 9.38153 -113.599 3
    endloop
  endfacet
  facet normal 0 0 1
    outer loop
      vertex 9.96057 -110.563 3
      vertex 7.7432 -110.843 3
      vertex 7.765 -111.19 3
    endloop
  endfacet
  facet normal 0 0 1
    outer loop
      vertex 6.76248 -109.06 3
      vertex 8.18712 -107.337 3
      vertex 7.67913 -106.968 3
    endloop
  endfacet
  facet normal 0 0 1
    outer loop
      vertex 9.84292 -109.947 3
      vertex 7.67813 -110.502 3
      vertex 7.7432 -110.843 3
    endloop
  endfacet
  facet normal 0 0 1
    outer loop
      vertex 9.64888 -109.349 3
      vertex 7.57083 -110.172 3
      vertex 7.67813 -110.502 3
    endloop
  endfacet
  facet normal 0 0 1
    outer loop
      vertex 9.38153 -108.781 3
      vertex 7.42299 -109.858 3
      vertex 7.57083 -110.172 3
    endloop
  endfacet
  facet normal 0 0 1
    outer loop
      vertex 9.04508 -108.251 3
      vertex 7.23693 -109.565 3
      vertex 7.42299 -109.858 3
    endloop
  endfacet
  facet normal 0 0 1
    outer loop
      vertex 6.48156 -108.855 3
      vertex 7.67913 -106.968 3
      vertex 7.1289 -106.666 3
    endloop
  endfacet
  facet normal 0 0 1
    outer loop
      vertex 8.64484 -107.767 3
      vertex 7.0156 -109.297 3
      vertex 7.23693 -109.565 3
    endloop
  endfacet
  facet normal 0 0 1
    outer loop
      vertex 8.18712 -107.337 3
      vertex 6.76248 -109.06 3
      vertex 7.0156 -109.297 3
    endloop
  endfacet
  facet normal 0 0 1
    outer loop
      vertex 6.17728 -108.688 3
      vertex 7.1289 -106.666 3
      vertex 6.54508 -106.435 3
    endloop
  endfacet
  facet normal 0 0 1
    outer loop
      vertex 7.67913 -106.968 3
      vertex 6.48156 -108.855 3
      vertex 6.76248 -109.06 3
    endloop
  endfacet
  facet normal 0 0 1
    outer loop
      vertex 7.1289 -106.666 3
      vertex 6.17728 -108.688 3
      vertex 6.48156 -108.855 3
    endloop
  endfacet
  facet normal 0 0 1
    outer loop
      vertex 5.85443 -108.56 3
      vertex 6.54508 -106.435 3
      vertex 5.93691 -106.279 3
    endloop
  endfacet
  facet normal 0 0 1
    outer loop
      vertex 6.54508 -106.435 3
      vertex 5.85443 -108.56 3
      vertex 6.17728 -108.688 3
    endloop
  endfacet
  facet normal 0 0 1
    outer loop
      vertex 5.93691 -106.279 3
      vertex 5.51811 -108.474 3
      vertex 5.85443 -108.56 3
    endloop
  endfacet
  facet normal 0 0 1
    outer loop
      vertex 5.31395 -106.2 3
      vertex 5.51811 -108.474 3
      vertex 5.93691 -106.279 3
    endloop
  endfacet
  facet normal 0 0 1
    outer loop
      vertex 5.31395 -106.2 3
      vertex 5.17362 -108.43 3
      vertex 5.51811 -108.474 3
    endloop
  endfacet
  facet normal 0 0 1
    outer loop
      vertex 5.31395 -106.2 3
      vertex 4.82638 -108.43 3
      vertex 5.17362 -108.43 3
    endloop
  endfacet
  facet normal -0 0 1
    outer loop
      vertex 4.68605 -106.2 3
      vertex 4.82638 -108.43 3
      vertex 5.31395 -106.2 3
    endloop
  endfacet
  facet normal 0 0 1
    outer loop
      vertex 4.68605 -106.2 3
      vertex 4.48189 -108.474 3
      vertex 4.82638 -108.43 3
    endloop
  endfacet
  facet normal -0 0 1
    outer loop
      vertex 4.06309 -106.279 3
      vertex 4.48189 -108.474 3
      vertex 4.68605 -106.2 3
    endloop
  endfacet
  facet normal 0 0 1
    outer loop
      vertex 4.48189 -108.474 3
      vertex 4.06309 -106.279 3
      vertex 4.14557 -108.56 3
    endloop
  endfacet
  facet normal -0 0 1
    outer loop
      vertex 3.45492 -106.435 3
      vertex 4.14557 -108.56 3
      vertex 4.06309 -106.279 3
    endloop
  endfacet
  facet normal 0 0 1
    outer loop
      vertex 4.14557 -108.56 3
      vertex 3.45492 -106.435 3
      vertex 3.82272 -108.688 3
    endloop
  endfacet
  facet normal -0 0 1
    outer loop
      vertex 2.8711 -106.666 3
      vertex 3.82272 -108.688 3
      vertex 3.45492 -106.435 3
    endloop
  endfacet
  facet normal 0 0 1
    outer loop
      vertex 3.82272 -108.688 3
      vertex 2.8711 -106.666 3
      vertex 3.51844 -108.855 3
    endloop
  endfacet
  facet normal -0 0 1
    outer loop
      vertex 2.32087 -106.968 3
      vertex 3.51844 -108.855 3
      vertex 2.8711 -106.666 3
    endloop
  endfacet
  facet normal 0 0 1
    outer loop
      vertex 3.51844 -108.855 3
      vertex 2.32087 -106.968 3
      vertex 3.23752 -109.06 3
    endloop
  endfacet
  facet normal -0 0 1
    outer loop
      vertex 1.81288 -107.337 3
      vertex 3.23752 -109.06 3
      vertex 2.32087 -106.968 3
    endloop
  endfacet
  facet normal 0 0 1
    outer loop
      vertex 3.23752 -109.06 3
      vertex 1.81288 -107.337 3
      vertex 2.9844 -109.297 3
    endloop
  endfacet
  facet normal -0 0 1
    outer loop
      vertex 1.35516 -107.767 3
      vertex 2.9844 -109.297 3
      vertex 1.81288 -107.337 3
    endloop
  endfacet
  facet normal 0 0 1
    outer loop
      vertex 2.9844 -109.297 3
      vertex 1.35516 -107.767 3
      vertex 2.76307 -109.565 3
    endloop
  endfacet
  facet normal -0 0 1
    outer loop
      vertex 0.954915 -108.251 3
      vertex 2.76307 -109.565 3
      vertex 1.35516 -107.767 3
    endloop
  endfacet
  facet normal 0 0 1
    outer loop
      vertex 2.76307 -109.565 3
      vertex 0.954915 -108.251 3
      vertex 2.57701 -109.858 3
    endloop
  endfacet
  facet normal -0 0 1
    outer loop
      vertex 0.618467 -108.781 3
      vertex 2.57701 -109.858 3
      vertex 0.954915 -108.251 3
    endloop
  endfacet
  facet normal 0 0 1
    outer loop
      vertex 2.57701 -109.858 3
      vertex 0.618467 -108.781 3
      vertex 2.42917 -110.172 3
    endloop
  endfacet
  facet normal -0 0 1
    outer loop
      vertex 7.42299 -112.522 3
      vertex 9.38153 -113.599 3
      vertex 7.57083 -112.208 3
    endloop
  endfacet
  facet normal 0 0 1
    outer loop
      vertex 9.38153 -113.599 3
      vertex 7.42299 -112.522 3
      vertex 9.04508 -114.129 3
    endloop
  endfacet
  facet normal -0 0 1
    outer loop
      vertex 7.23693 -112.815 3
      vertex 9.04508 -114.129 3
      vertex 7.42299 -112.522 3
    endloop
  endfacet
  facet normal 0 0 1
    outer loop
      vertex 9.04508 -114.129 3
      vertex 7.23693 -112.815 3
      vertex 8.64484 -114.613 3
    endloop
  endfacet
  facet normal -0 0 1
    outer loop
      vertex 7.0156 -113.083 3
      vertex 8.64484 -114.613 3
      vertex 7.23693 -112.815 3
    endloop
  endfacet
  facet normal 0 0 1
    outer loop
      vertex 8.64484 -114.613 3
      vertex 7.0156 -113.083 3
      vertex 8.18712 -115.043 3
    endloop
  endfacet
  facet normal -0 0 1
    outer loop
      vertex 6.76248 -113.32 3
      vertex 8.18712 -115.043 3
      vertex 7.0156 -113.083 3
    endloop
  endfacet
  facet normal 0 0 1
    outer loop
      vertex 8.18712 -115.043 3
      vertex 6.76248 -113.32 3
      vertex 7.67913 -115.412 3
    endloop
  endfacet
  facet normal -0 0 1
    outer loop
      vertex 6.48156 -113.525 3
      vertex 7.67913 -115.412 3
      vertex 6.76248 -113.32 3
    endloop
  endfacet
  facet normal 0 0 1
    outer loop
      vertex 7.67913 -115.412 3
      vertex 6.48156 -113.525 3
      vertex 7.1289 -115.714 3
    endloop
  endfacet
  facet normal -0 0 1
    outer loop
      vertex 6.17728 -113.692 3
      vertex 7.1289 -115.714 3
      vertex 6.48156 -113.525 3
    endloop
  endfacet
  facet normal 0 0 1
    outer loop
      vertex 7.1289 -115.714 3
      vertex 6.17728 -113.692 3
      vertex 6.54508 -115.945 3
    endloop
  endfacet
  facet normal -0 0 1
    outer loop
      vertex 5.85443 -113.82 3
      vertex 6.54508 -115.945 3
      vertex 6.17728 -113.692 3
    endloop
  endfacet
  facet normal 0 0 1
    outer loop
      vertex 6.54508 -115.945 3
      vertex 5.85443 -113.82 3
      vertex 5.93691 -116.101 3
    endloop
  endfacet
  facet normal -0 0 1
    outer loop
      vertex 5.51811 -113.906 3
      vertex 5.93691 -116.101 3
      vertex 5.85443 -113.82 3
    endloop
  endfacet
  facet normal 0 0 1
    outer loop
      vertex 5.51811 -113.906 3
      vertex 5.31395 -116.18 3
      vertex 5.93691 -116.101 3
    endloop
  endfacet
  facet normal -0 0 1
    outer loop
      vertex 5.17362 -113.95 3
      vertex 5.31395 -116.18 3
      vertex 5.51811 -113.906 3
    endloop
  endfacet
  facet normal -0 0 1
    outer loop
      vertex 4.82638 -113.95 3
      vertex 5.31395 -116.18 3
      vertex 5.17362 -113.95 3
    endloop
  endfacet
  facet normal 0 0 1
    outer loop
      vertex 4.82638 -113.95 3
      vertex 4.68605 -116.18 3
      vertex 5.31395 -116.18 3
    endloop
  endfacet
  facet normal 0 0 1
    outer loop
      vertex 4.48189 -113.906 3
      vertex 4.68605 -116.18 3
      vertex 4.82638 -113.95 3
    endloop
  endfacet
  facet normal 0 0 1
    outer loop
      vertex 4.06309 -116.101 3
      vertex 4.48189 -113.906 3
      vertex 4.14557 -113.82 3
    endloop
  endfacet
  facet normal 0 0 1
    outer loop
      vertex 4.48189 -113.906 3
      vertex 4.06309 -116.101 3
      vertex 4.68605 -116.18 3
    endloop
  endfacet
  facet normal 0 0 1
    outer loop
      vertex 3.45492 -115.945 3
      vertex 4.14557 -113.82 3
      vertex 3.82272 -113.692 3
    endloop
  endfacet
  facet normal 0 0 1
    outer loop
      vertex 2.8711 -115.714 3
      vertex 3.82272 -113.692 3
      vertex 3.51844 -113.525 3
    endloop
  endfacet
  facet normal 0 0 1
    outer loop
      vertex 4.14557 -113.82 3
      vertex 3.45492 -115.945 3
      vertex 4.06309 -116.101 3
    endloop
  endfacet
  facet normal 0 0 1
    outer loop
      vertex 2.32087 -115.412 3
      vertex 3.51844 -113.525 3
      vertex 3.23752 -113.32 3
    endloop
  endfacet
  facet normal 0 0 1
    outer loop
      vertex 1.81288 -115.043 3
      vertex 3.23752 -113.32 3
      vertex 2.9844 -113.083 3
    endloop
  endfacet
  facet normal 0 0 1
    outer loop
      vertex 3.82272 -113.692 3
      vertex 2.8711 -115.714 3
      vertex 3.45492 -115.945 3
    endloop
  endfacet
  facet normal 0 0 1
    outer loop
      vertex 1.35516 -114.613 3
      vertex 2.9844 -113.083 3
      vertex 2.76307 -112.815 3
    endloop
  endfacet
  facet normal 0 0 1
    outer loop
      vertex 0.954915 -114.129 3
      vertex 2.76307 -112.815 3
      vertex 2.57701 -112.522 3
    endloop
  endfacet
  facet normal 0 0 1
    outer loop
      vertex 0.618467 -113.599 3
      vertex 2.57701 -112.522 3
      vertex 2.42917 -112.208 3
    endloop
  endfacet
  facet normal 0 0 1
    outer loop
      vertex 0.351118 -113.031 3
      vertex 2.42917 -112.208 3
      vertex 2.32187 -111.878 3
    endloop
  endfacet
  facet normal 0 0 1
    outer loop
      vertex 3.51844 -113.525 3
      vertex 2.32087 -115.412 3
      vertex 2.8711 -115.714 3
    endloop
  endfacet
  facet normal 0 0 1
    outer loop
      vertex 0.157084 -112.433 3
      vertex 2.32187 -111.878 3
      vertex 2.2568 -111.537 3
    endloop
  endfacet
  facet normal 0 0 1
    outer loop
      vertex 0.0394268 -111.817 3
      vertex 2.2568 -111.537 3
      vertex 2.235 -111.19 3
    endloop
  endfacet
  facet normal -0 0 1
    outer loop
      vertex 0.351118 -109.349 3
      vertex 2.42917 -110.172 3
      vertex 0.618467 -108.781 3
    endloop
  endfacet
  facet normal 0 0 1
    outer loop
      vertex 3.23752 -113.32 3
      vertex 1.81288 -115.043 3
      vertex 2.32087 -115.412 3
    endloop
  endfacet
  facet normal 0 0 1
    outer loop
      vertex 2.42917 -110.172 3
      vertex 0.351118 -109.349 3
      vertex 2.32187 -110.502 3
    endloop
  endfacet
  facet normal 0 0 1
    outer loop
      vertex 2.9844 -113.083 3
      vertex 1.35516 -114.613 3
      vertex 1.81288 -115.043 3
    endloop
  endfacet
  facet normal -0 0 1
    outer loop
      vertex 0.157084 -109.947 3
      vertex 2.32187 -110.502 3
      vertex 0.351118 -109.349 3
    endloop
  endfacet
  facet normal 0 0 1
    outer loop
      vertex 2.76307 -112.815 3
      vertex 0.954915 -114.129 3
      vertex 1.35516 -114.613 3
    endloop
  endfacet
  facet normal 0 0 1
    outer loop
      vertex 2.32187 -110.502 3
      vertex 0.157084 -109.947 3
      vertex 2.2568 -110.843 3
    endloop
  endfacet
  facet normal 0 0 1
    outer loop
      vertex 2.57701 -112.522 3
      vertex 0.618467 -113.599 3
      vertex 0.954915 -114.129 3
    endloop
  endfacet
  facet normal -0 0 1
    outer loop
      vertex 0.0394268 -110.563 3
      vertex 2.2568 -110.843 3
      vertex 0.157084 -109.947 3
    endloop
  endfacet
  facet normal 0 0 1
    outer loop
      vertex 2.42917 -112.208 3
      vertex 0.351118 -113.031 3
      vertex 0.618467 -113.599 3
    endloop
  endfacet
  facet normal 0 0 1
    outer loop
      vertex 2.2568 -110.843 3
      vertex 0.0394268 -110.563 3
      vertex 2.235 -111.19 3
    endloop
  endfacet
  facet normal 0 0 1
    outer loop
      vertex 2.32187 -111.878 3
      vertex 0.157084 -112.433 3
      vertex 0.351118 -113.031 3
    endloop
  endfacet
  facet normal 0 0 1
    outer loop
      vertex 0 -111.19 3
      vertex 2.235 -111.19 3
      vertex 0.0394268 -110.563 3
    endloop
  endfacet
  facet normal 0 0 1
    outer loop
      vertex 2.2568 -111.537 3
      vertex 0.0394268 -111.817 3
      vertex 0.157084 -112.433 3
    endloop
  endfacet
  facet normal 0 0 1
    outer loop
      vertex 2.235 -111.19 3
      vertex 0 -111.19 3
      vertex 0.0394268 -111.817 3
    endloop
  endfacet
  facet normal -0.481756 0.876305 0
    outer loop
      vertex 2.8711 -106.666 0
      vertex 2.32087 -106.968 3
      vertex 2.8711 -106.666 3
    endloop
  endfacet
  facet normal -0.481756 0.876305 0
    outer loop
      vertex 2.32087 -106.968 3
      vertex 2.8711 -106.666 0
      vertex 2.32087 -106.968 0
    endloop
  endfacet
  facet normal -0.587784 0.809018 0
    outer loop
      vertex 2.32087 -106.968 0
      vertex 1.81288 -107.337 3
      vertex 2.32087 -106.968 3
    endloop
  endfacet
  facet normal -0.587784 0.809018 0
    outer loop
      vertex 1.81288 -107.337 3
      vertex 2.32087 -106.968 0
      vertex 1.81288 -107.337 0
    endloop
  endfacet
  facet normal -0.248685 0.968584 0
    outer loop
      vertex 4.06309 -106.279 0
      vertex 3.45492 -106.435 3
      vertex 4.06309 -106.279 3
    endloop
  endfacet
  facet normal -0.248685 0.968584 0
    outer loop
      vertex 3.45492 -106.435 3
      vertex 4.06309 -106.279 0
      vertex 3.45492 -106.435 0
    endloop
  endfacet
  facet normal 0.998027 -0.0627913 0
    outer loop
      vertex 9.96057 -111.817 3
      vertex 10 -111.19 0
      vertex 10 -111.19 3
    endloop
  endfacet
  facet normal 0.998027 -0.0627913 0
    outer loop
      vertex 10 -111.19 0
      vertex 9.96057 -111.817 3
      vertex 9.96057 -111.817 0
    endloop
  endfacet
  facet normal 0.982287 -0.187381 0
    outer loop
      vertex 9.84292 -112.433 3
      vertex 9.96057 -111.817 0
      vertex 9.96057 -111.817 3
    endloop
  endfacet
  facet normal 0.982287 -0.187381 0
    outer loop
      vertex 9.96057 -111.817 0
      vertex 9.84292 -112.433 3
      vertex 9.84292 -112.433 0
    endloop
  endfacet
  facet normal -0.684548 -0.728968 0
    outer loop
      vertex 1.35516 -114.613 0
      vertex 1.81288 -115.043 3
      vertex 1.35516 -114.613 3
    endloop
  endfacet
  facet normal -0.684548 -0.728968 -0
    outer loop
      vertex 1.81288 -115.043 3
      vertex 1.35516 -114.613 0
      vertex 1.81288 -115.043 0
    endloop
  endfacet
  facet normal -0.770514 -0.637423 0
    outer loop
      vertex 1.35516 -114.613 0
      vertex 0.954915 -114.129 3
      vertex 0.954915 -114.129 0
    endloop
  endfacet
  facet normal -0.770514 -0.637423 0
    outer loop
      vertex 0.954915 -114.129 3
      vertex 1.35516 -114.613 0
      vertex 1.35516 -114.613 3
    endloop
  endfacet
  facet normal 0.481756 -0.876305 0
    outer loop
      vertex 7.1289 -115.714 0
      vertex 7.67913 -115.412 3
      vertex 7.1289 -115.714 3
    endloop
  endfacet
  facet normal 0.481756 -0.876305 0
    outer loop
      vertex 7.67913 -115.412 3
      vertex 7.1289 -115.714 0
      vertex 7.67913 -115.412 0
    endloop
  endfacet
  facet normal 0.904827 -0.425779 0
    outer loop
      vertex 9.38153 -113.599 3
      vertex 9.64888 -113.031 0
      vertex 9.64888 -113.031 3
    endloop
  endfacet
  facet normal 0.904827 -0.425779 0
    outer loop
      vertex 9.64888 -113.031 0
      vertex 9.38153 -113.599 3
      vertex 9.38153 -113.599 0
    endloop
  endfacet
  facet normal -0.368126 -0.929776 0
    outer loop
      vertex 2.8711 -115.714 0
      vertex 3.45492 -115.945 3
      vertex 2.8711 -115.714 3
    endloop
  endfacet
  facet normal -0.368126 -0.929776 -0
    outer loop
      vertex 3.45492 -115.945 3
      vertex 2.8711 -115.714 0
      vertex 3.45492 -115.945 0
    endloop
  endfacet
  facet normal -0.951057 -0.309016 0
    outer loop
      vertex 0.351118 -113.031 0
      vertex 0.157084 -112.433 3
      vertex 0.157084 -112.433 0
    endloop
  endfacet
  facet normal -0.951057 -0.309016 0
    outer loop
      vertex 0.157084 -112.433 3
      vertex 0.351118 -113.031 0
      vertex 0.351118 -113.031 3
    endloop
  endfacet
  facet normal 0.587784 -0.809018 0
    outer loop
      vertex 7.67913 -115.412 0
      vertex 8.18712 -115.043 3
      vertex 7.67913 -115.412 3
    endloop
  endfacet
  facet normal 0.587784 -0.809018 0
    outer loop
      vertex 8.18712 -115.043 3
      vertex 7.67913 -115.412 0
      vertex 8.18712 -115.043 0
    endloop
  endfacet
  facet normal 0.248685 -0.968584 0
    outer loop
      vertex 5.93691 -116.101 0
      vertex 6.54508 -115.945 3
      vertex 5.93691 -116.101 3
    endloop
  endfacet
  facet normal 0.248685 -0.968584 0
    outer loop
      vertex 6.54508 -115.945 3
      vertex 5.93691 -116.101 0
      vertex 6.54508 -115.945 0
    endloop
  endfacet
  facet normal 0.844325 -0.535831 0
    outer loop
      vertex 9.04508 -114.129 3
      vertex 9.38153 -113.599 0
      vertex 9.38153 -113.599 3
    endloop
  endfacet
  facet normal 0.844325 -0.535831 0
    outer loop
      vertex 9.38153 -113.599 0
      vertex 9.04508 -114.129 3
      vertex 9.04508 -114.129 0
    endloop
  endfacet
  facet normal 0.770514 -0.637423 0
    outer loop
      vertex 8.64484 -114.613 3
      vertex 9.04508 -114.129 0
      vertex 9.04508 -114.129 3
    endloop
  endfacet
  facet normal 0.770514 -0.637423 0
    outer loop
      vertex 9.04508 -114.129 0
      vertex 8.64484 -114.613 3
      vertex 8.64484 -114.613 0
    endloop
  endfacet
  facet normal 0.951057 -0.309016 0
    outer loop
      vertex 9.64888 -113.031 3
      vertex 9.84292 -112.433 0
      vertex 9.84292 -112.433 3
    endloop
  endfacet
  facet normal 0.951057 -0.309016 0
    outer loop
      vertex 9.84292 -112.433 0
      vertex 9.64888 -113.031 3
      vertex 9.64888 -113.031 0
    endloop
  endfacet
  facet normal -0.125333 -0.992115 0
    outer loop
      vertex 4.06309 -116.101 0
      vertex 4.68605 -116.18 3
      vertex 4.06309 -116.101 3
    endloop
  endfacet
  facet normal -0.125333 -0.992115 -0
    outer loop
      vertex 4.68605 -116.18 3
      vertex 4.06309 -116.101 0
      vertex 4.68605 -116.18 0
    endloop
  endfacet
  facet normal -0.481756 -0.876305 0
    outer loop
      vertex 2.32087 -115.412 0
      vertex 2.8711 -115.714 3
      vertex 2.32087 -115.412 3
    endloop
  endfacet
  facet normal -0.481756 -0.876305 -0
    outer loop
      vertex 2.8711 -115.714 3
      vertex 2.32087 -115.412 0
      vertex 2.8711 -115.714 0
    endloop
  endfacet
  facet normal -0.587784 -0.809018 0
    outer loop
      vertex 1.81288 -115.043 0
      vertex 2.32087 -115.412 3
      vertex 1.81288 -115.043 3
    endloop
  endfacet
  facet normal -0.587784 -0.809018 -0
    outer loop
      vertex 2.32087 -115.412 3
      vertex 1.81288 -115.043 0
      vertex 2.32087 -115.412 0
    endloop
  endfacet
  facet normal -0.844325 -0.535831 0
    outer loop
      vertex 0.954915 -114.129 0
      vertex 0.618467 -113.599 3
      vertex 0.618467 -113.599 0
    endloop
  endfacet
  facet normal -0.844325 -0.535831 0
    outer loop
      vertex 0.618467 -113.599 3
      vertex 0.954915 -114.129 0
      vertex 0.954915 -114.129 3
    endloop
  endfacet
  facet normal -0.904827 -0.425779 0
    outer loop
      vertex 0.618467 -113.599 0
      vertex 0.351118 -113.031 3
      vertex 0.351118 -113.031 0
    endloop
  endfacet
  facet normal -0.904827 -0.425779 0
    outer loop
      vertex 0.351118 -113.031 3
      vertex 0.618467 -113.599 0
      vertex 0.618467 -113.599 3
    endloop
  endfacet
  facet normal -0.982287 -0.187381 0
    outer loop
      vertex 0.157084 -112.433 0
      vertex 0.0394268 -111.817 3
      vertex 0.0394268 -111.817 0
    endloop
  endfacet
  facet normal -0.982287 -0.187381 0
    outer loop
      vertex 0.0394268 -111.817 3
      vertex 0.157084 -112.433 0
      vertex 0.157084 -112.433 3
    endloop
  endfacet
  facet normal -0.998027 -0.0627913 0
    outer loop
      vertex 0.0394268 -111.817 0
      vertex 0 -111.19 3
      vertex 0 -111.19 0
    endloop
  endfacet
  facet normal -0.998027 -0.0627913 0
    outer loop
      vertex 0 -111.19 3
      vertex 0.0394268 -111.817 0
      vertex 0.0394268 -111.817 3
    endloop
  endfacet
  facet normal -0.248685 -0.968584 0
    outer loop
      vertex 3.45492 -115.945 0
      vertex 4.06309 -116.101 3
      vertex 3.45492 -115.945 3
    endloop
  endfacet
  facet normal -0.248685 -0.968584 -0
    outer loop
      vertex 4.06309 -116.101 3
      vertex 3.45492 -115.945 0
      vertex 4.06309 -116.101 0
    endloop
  endfacet
  facet normal -0.998027 -0.06279 0
    outer loop
      vertex 7.765 -111.19 -1
      vertex 7.7432 -110.843 3
      vertex 7.7432 -110.843 -1
    endloop
  endfacet
  facet normal -0.998027 -0.06279 0
    outer loop
      vertex 7.7432 -110.843 3
      vertex 7.765 -111.19 -1
      vertex 7.765 -111.19 3
    endloop
  endfacet
  facet normal 0.998027 -0.06279 0
    outer loop
      vertex 2.235 -111.19 3
      vertex 2.2568 -110.843 -1
      vertex 2.2568 -110.843 3
    endloop
  endfacet
  facet normal 0.998027 -0.06279 0
    outer loop
      vertex 2.2568 -110.843 -1
      vertex 2.235 -111.19 3
      vertex 2.235 -111.19 -1
    endloop
  endfacet
  facet normal 0 -1 0
    outer loop
      vertex 4.82638 -108.43 -1
      vertex 5.17362 -108.43 3
      vertex 4.82638 -108.43 3
    endloop
  endfacet
  facet normal 0 -1 -0
    outer loop
      vertex 5.17362 -108.43 3
      vertex 4.82638 -108.43 -1
      vertex 5.17362 -108.43 -1
    endloop
  endfacet
  facet normal 0 1 -0
    outer loop
      vertex 5.17362 -113.95 -1
      vertex 4.82638 -113.95 3
      vertex 5.17362 -113.95 3
    endloop
  endfacet
  facet normal 0 1 0
    outer loop
      vertex 4.82638 -113.95 3
      vertex 5.17362 -113.95 -1
      vertex 4.82638 -113.95 -1
    endloop
  endfacet
  facet normal -0.684544 -0.728972 0
    outer loop
      vertex 6.76248 -109.06 -1
      vertex 7.0156 -109.297 3
      vertex 6.76248 -109.06 3
    endloop
  endfacet
  facet normal -0.684544 -0.728972 -0
    outer loop
      vertex 7.0156 -109.297 3
      vertex 6.76248 -109.06 -1
      vertex 7.0156 -109.297 -1
    endloop
  endfacet
  facet normal 0.684544 -0.728972 0
    outer loop
      vertex 2.9844 -109.297 -1
      vertex 3.23752 -109.06 3
      vertex 2.9844 -109.297 3
    endloop
  endfacet
  facet normal 0.684544 -0.728972 0
    outer loop
      vertex 3.23752 -109.06 3
      vertex 2.9844 -109.297 -1
      vertex 3.23752 -109.06 -1
    endloop
  endfacet
  facet normal 0.368139 -0.929771 0
    outer loop
      vertex 3.82272 -108.688 -1
      vertex 4.14557 -108.56 3
      vertex 3.82272 -108.688 3
    endloop
  endfacet
  facet normal 0.368139 -0.929771 0
    outer loop
      vertex 4.14557 -108.56 3
      vertex 3.82272 -108.688 -1
      vertex 4.14557 -108.56 -1
    endloop
  endfacet
  facet normal -0.844326 0.53583 0
    outer loop
      vertex 7.23693 -112.815 -1
      vertex 7.42299 -112.522 3
      vertex 7.42299 -112.522 -1
    endloop
  endfacet
  facet normal -0.844326 0.53583 0
    outer loop
      vertex 7.42299 -112.522 3
      vertex 7.23693 -112.815 -1
      vertex 7.23693 -112.815 3
    endloop
  endfacet
  facet normal -0.904829 -0.425776 0
    outer loop
      vertex 7.57083 -110.172 -1
      vertex 7.42299 -109.858 3
      vertex 7.42299 -109.858 -1
    endloop
  endfacet
  facet normal -0.904829 -0.425776 0
    outer loop
      vertex 7.42299 -109.858 3
      vertex 7.57083 -110.172 -1
      vertex 7.57083 -110.172 3
    endloop
  endfacet
  facet normal -0.982287 -0.187381 0
    outer loop
      vertex 7.7432 -110.843 -1
      vertex 7.67813 -110.502 3
      vertex 7.67813 -110.502 -1
    endloop
  endfacet
  facet normal -0.982287 -0.187381 0
    outer loop
      vertex 7.67813 -110.502 3
      vertex 7.7432 -110.843 -1
      vertex 7.7432 -110.843 3
    endloop
  endfacet
  facet normal -0.844326 -0.53583 0
    outer loop
      vertex 7.42299 -109.858 -1
      vertex 7.23693 -109.565 3
      vertex 7.23693 -109.565 -1
    endloop
  endfacet
  facet normal -0.844326 -0.53583 0
    outer loop
      vertex 7.23693 -109.565 3
      vertex 7.42299 -109.858 -1
      vertex 7.42299 -109.858 3
    endloop
  endfacet
  facet normal -0.368139 -0.929771 0
    outer loop
      vertex 5.85443 -108.56 -1
      vertex 6.17728 -108.688 3
      vertex 5.85443 -108.56 3
    endloop
  endfacet
  facet normal -0.368139 -0.929771 -0
    outer loop
      vertex 6.17728 -108.688 3
      vertex 5.85443 -108.56 -1
      vertex 6.17728 -108.688 -1
    endloop
  endfacet
  facet normal -0.481741 -0.876313 0
    outer loop
      vertex 6.17728 -108.688 -1
      vertex 6.48156 -108.855 3
      vertex 6.17728 -108.688 3
    endloop
  endfacet
  facet normal -0.481741 -0.876313 -0
    outer loop
      vertex 6.48156 -108.855 3
      vertex 6.17728 -108.688 -1
      vertex 6.48156 -108.855 -1
    endloop
  endfacet
  facet normal 0.904829 -0.425776 0
    outer loop
      vertex 2.42917 -110.172 3
      vertex 2.57701 -109.858 -1
      vertex 2.57701 -109.858 3
    endloop
  endfacet
  facet normal 0.904829 -0.425776 0
    outer loop
      vertex 2.57701 -109.858 -1
      vertex 2.42917 -110.172 3
      vertex 2.42917 -110.172 -1
    endloop
  endfacet
  facet normal 0.951057 -0.309017 0
    outer loop
      vertex 2.32187 -110.502 3
      vertex 2.42917 -110.172 -1
      vertex 2.42917 -110.172 3
    endloop
  endfacet
  facet normal 0.951057 -0.309017 0
    outer loop
      vertex 2.42917 -110.172 -1
      vertex 2.32187 -110.502 3
      vertex 2.32187 -110.502 -1
    endloop
  endfacet
  facet normal 0.125329 -0.992115 0
    outer loop
      vertex 4.48189 -108.474 -1
      vertex 4.82638 -108.43 3
      vertex 4.48189 -108.474 3
    endloop
  endfacet
  facet normal 0.125329 -0.992115 0
    outer loop
      vertex 4.82638 -108.43 3
      vertex 4.48189 -108.474 -1
      vertex 4.82638 -108.43 -1
    endloop
  endfacet
  facet normal -0.125329 0.992115 0
    outer loop
      vertex 5.51811 -113.906 -1
      vertex 5.17362 -113.95 3
      vertex 5.51811 -113.906 3
    endloop
  endfacet
  facet normal -0.125329 0.992115 0
    outer loop
      vertex 5.17362 -113.95 3
      vertex 5.51811 -113.906 -1
      vertex 5.17362 -113.95 -1
    endloop
  endfacet
  facet normal -0.951057 -0.309017 0
    outer loop
      vertex 7.67813 -110.502 -1
      vertex 7.57083 -110.172 3
      vertex 7.57083 -110.172 -1
    endloop
  endfacet
  facet normal -0.951057 -0.309017 0
    outer loop
      vertex 7.57083 -110.172 3
      vertex 7.67813 -110.502 -1
      vertex 7.67813 -110.502 3
    endloop
  endfacet
  facet normal -0.770513 -0.637424 0
    outer loop
      vertex 7.23693 -109.565 -1
      vertex 7.0156 -109.297 3
      vertex 7.0156 -109.297 -1
    endloop
  endfacet
  facet normal -0.770513 -0.637424 0
    outer loop
      vertex 7.0156 -109.297 3
      vertex 7.23693 -109.565 -1
      vertex 7.23693 -109.565 3
    endloop
  endfacet
  facet normal -0.248681 -0.968585 0
    outer loop
      vertex 5.51811 -108.474 -1
      vertex 5.85443 -108.56 3
      vertex 5.51811 -108.474 3
    endloop
  endfacet
  facet normal -0.248681 -0.968585 -0
    outer loop
      vertex 5.85443 -108.56 3
      vertex 5.51811 -108.474 -1
      vertex 5.85443 -108.56 -1
    endloop
  endfacet
  facet normal -0.125329 -0.992115 0
    outer loop
      vertex 5.17362 -108.43 -1
      vertex 5.51811 -108.474 3
      vertex 5.17362 -108.43 3
    endloop
  endfacet
  facet normal -0.125329 -0.992115 -0
    outer loop
      vertex 5.51811 -108.474 3
      vertex 5.17362 -108.43 -1
      vertex 5.51811 -108.474 -1
    endloop
  endfacet
  facet normal -0.587793 -0.809012 0
    outer loop
      vertex 6.48156 -108.855 -1
      vertex 6.76248 -109.06 3
      vertex 6.48156 -108.855 3
    endloop
  endfacet
  facet normal -0.587793 -0.809012 -0
    outer loop
      vertex 6.76248 -109.06 3
      vertex 6.48156 -108.855 -1
      vertex 6.76248 -109.06 -1
    endloop
  endfacet
  facet normal 0.844326 -0.53583 0
    outer loop
      vertex 2.57701 -109.858 3
      vertex 2.76307 -109.565 -1
      vertex 2.76307 -109.565 3
    endloop
  endfacet
  facet normal 0.844326 -0.53583 0
    outer loop
      vertex 2.76307 -109.565 -1
      vertex 2.57701 -109.858 3
      vertex 2.57701 -109.858 -1
    endloop
  endfacet
  facet normal 0.770513 -0.637424 0
    outer loop
      vertex 2.76307 -109.565 3
      vertex 2.9844 -109.297 -1
      vertex 2.9844 -109.297 3
    endloop
  endfacet
  facet normal 0.770513 -0.637424 0
    outer loop
      vertex 2.9844 -109.297 -1
      vertex 2.76307 -109.565 3
      vertex 2.76307 -109.565 -1
    endloop
  endfacet
  facet normal 0.982287 -0.187381 0
    outer loop
      vertex 2.2568 -110.843 3
      vertex 2.32187 -110.502 -1
      vertex 2.32187 -110.502 3
    endloop
  endfacet
  facet normal 0.982287 -0.187381 0
    outer loop
      vertex 2.32187 -110.502 -1
      vertex 2.2568 -110.843 3
      vertex 2.2568 -110.843 -1
    endloop
  endfacet
  facet normal 0.481741 -0.876313 0
    outer loop
      vertex 3.51844 -108.855 -1
      vertex 3.82272 -108.688 3
      vertex 3.51844 -108.855 3
    endloop
  endfacet
  facet normal 0.481741 -0.876313 0
    outer loop
      vertex 3.82272 -108.688 3
      vertex 3.51844 -108.855 -1
      vertex 3.82272 -108.688 -1
    endloop
  endfacet
  facet normal 0.587793 -0.809012 0
    outer loop
      vertex 3.23752 -109.06 -1
      vertex 3.51844 -108.855 3
      vertex 3.23752 -109.06 3
    endloop
  endfacet
  facet normal 0.587793 -0.809012 0
    outer loop
      vertex 3.51844 -108.855 3
      vertex 3.23752 -109.06 -1
      vertex 3.51844 -108.855 -1
    endloop
  endfacet
  facet normal 0.248681 -0.968585 0
    outer loop
      vertex 4.14557 -108.56 -1
      vertex 4.48189 -108.474 3
      vertex 4.14557 -108.56 3
    endloop
  endfacet
  facet normal 0.248681 -0.968585 0
    outer loop
      vertex 4.48189 -108.474 3
      vertex 4.14557 -108.56 -1
      vertex 4.48189 -108.474 -1
    endloop
  endfacet
  facet normal -0.998027 0.0627914 0
    outer loop
      vertex 7.7432 -111.537 -1
      vertex 7.765 -111.19 3
      vertex 7.765 -111.19 -1
    endloop
  endfacet
  facet normal -0.998027 0.0627914 0
    outer loop
      vertex 7.765 -111.19 3
      vertex 7.7432 -111.537 -1
      vertex 7.7432 -111.537 3
    endloop
  endfacet
  facet normal -0.770513 0.637424 0
    outer loop
      vertex 7.0156 -113.083 -1
      vertex 7.23693 -112.815 3
      vertex 7.23693 -112.815 -1
    endloop
  endfacet
  facet normal -0.770513 0.637424 0
    outer loop
      vertex 7.23693 -112.815 3
      vertex 7.0156 -113.083 -1
      vertex 7.0156 -113.083 3
    endloop
  endfacet
  facet normal -0.982287 0.187381 0
    outer loop
      vertex 7.67813 -111.878 -1
      vertex 7.7432 -111.537 3
      vertex 7.7432 -111.537 -1
    endloop
  endfacet
  facet normal -0.982287 0.187381 0
    outer loop
      vertex 7.7432 -111.537 3
      vertex 7.67813 -111.878 -1
      vertex 7.67813 -111.878 3
    endloop
  endfacet
  facet normal -0.587793 0.809012 0
    outer loop
      vertex 6.76248 -113.32 -1
      vertex 6.48156 -113.525 3
      vertex 6.76248 -113.32 3
    endloop
  endfacet
  facet normal -0.587793 0.809012 0
    outer loop
      vertex 6.48156 -113.525 3
      vertex 6.76248 -113.32 -1
      vertex 6.48156 -113.525 -1
    endloop
  endfacet
  facet normal -0.684544 0.728972 0
    outer loop
      vertex 7.0156 -113.083 -1
      vertex 6.76248 -113.32 3
      vertex 7.0156 -113.083 3
    endloop
  endfacet
  facet normal -0.684544 0.728972 0
    outer loop
      vertex 6.76248 -113.32 3
      vertex 7.0156 -113.083 -1
      vertex 6.76248 -113.32 -1
    endloop
  endfacet
  facet normal -0.904829 0.425776 0
    outer loop
      vertex 7.42299 -112.522 -1
      vertex 7.57083 -112.208 3
      vertex 7.57083 -112.208 -1
    endloop
  endfacet
  facet normal -0.904829 0.425776 0
    outer loop
      vertex 7.57083 -112.208 3
      vertex 7.42299 -112.522 -1
      vertex 7.42299 -112.522 3
    endloop
  endfacet
  facet normal 0.951057 0.309017 0
    outer loop
      vertex 2.42917 -112.208 3
      vertex 2.32187 -111.878 -1
      vertex 2.32187 -111.878 3
    endloop
  endfacet
  facet normal 0.951057 0.309017 0
    outer loop
      vertex 2.32187 -111.878 -1
      vertex 2.42917 -112.208 3
      vertex 2.42917 -112.208 -1
    endloop
  endfacet
  facet normal -0.481758 0.876304 0
    outer loop
      vertex 6.48156 -113.525 -1
      vertex 6.17728 -113.692 3
      vertex 6.48156 -113.525 3
    endloop
  endfacet
  facet normal -0.481758 0.876304 0
    outer loop
      vertex 6.17728 -113.692 3
      vertex 6.48156 -113.525 -1
      vertex 6.17728 -113.692 -1
    endloop
  endfacet
  facet normal -0.36812 0.929778 0
    outer loop
      vertex 6.17728 -113.692 -1
      vertex 5.85443 -113.82 3
      vertex 6.17728 -113.692 3
    endloop
  endfacet
  facet normal -0.36812 0.929778 0
    outer loop
      vertex 5.85443 -113.82 3
      vertex 6.17728 -113.692 -1
      vertex 5.85443 -113.82 -1
    endloop
  endfacet
  facet normal -0.248681 0.968585 0
    outer loop
      vertex 5.85443 -113.82 -1
      vertex 5.51811 -113.906 3
      vertex 5.85443 -113.82 3
    endloop
  endfacet
  facet normal -0.248681 0.968585 0
    outer loop
      vertex 5.51811 -113.906 3
      vertex 5.85443 -113.82 -1
      vertex 5.51811 -113.906 -1
    endloop
  endfacet
  facet normal -0.951057 0.309017 0
    outer loop
      vertex 7.57083 -112.208 -1
      vertex 7.67813 -111.878 3
      vertex 7.67813 -111.878 -1
    endloop
  endfacet
  facet normal -0.951057 0.309017 0
    outer loop
      vertex 7.67813 -111.878 3
      vertex 7.57083 -112.208 -1
      vertex 7.57083 -112.208 3
    endloop
  endfacet
  facet normal 0.125329 0.992115 -0
    outer loop
      vertex 4.82638 -113.95 -1
      vertex 4.48189 -113.906 3
      vertex 4.82638 -113.95 3
    endloop
  endfacet
  facet normal 0.125329 0.992115 0
    outer loop
      vertex 4.48189 -113.906 3
      vertex 4.82638 -113.95 -1
      vertex 4.48189 -113.906 -1
    endloop
  endfacet
  facet normal 0.36812 0.929778 -0
    outer loop
      vertex 4.14557 -113.82 -1
      vertex 3.82272 -113.692 3
      vertex 4.14557 -113.82 3
    endloop
  endfacet
  facet normal 0.36812 0.929778 0
    outer loop
      vertex 3.82272 -113.692 3
      vertex 4.14557 -113.82 -1
      vertex 3.82272 -113.692 -1
    endloop
  endfacet
  facet normal 0.248681 0.968585 -0
    outer loop
      vertex 4.48189 -113.906 -1
      vertex 4.14557 -113.82 3
      vertex 4.48189 -113.906 3
    endloop
  endfacet
  facet normal 0.248681 0.968585 0
    outer loop
      vertex 4.14557 -113.82 3
      vertex 4.48189 -113.906 -1
      vertex 4.14557 -113.82 -1
    endloop
  endfacet
  facet normal 0.770513 0.637424 0
    outer loop
      vertex 2.9844 -113.083 3
      vertex 2.76307 -112.815 -1
      vertex 2.76307 -112.815 3
    endloop
  endfacet
  facet normal 0.770513 0.637424 0
    outer loop
      vertex 2.76307 -112.815 -1
      vertex 2.9844 -113.083 3
      vertex 2.9844 -113.083 -1
    endloop
  endfacet
  facet normal 0.684544 0.728972 -0
    outer loop
      vertex 3.23752 -113.32 -1
      vertex 2.9844 -113.083 3
      vertex 3.23752 -113.32 3
    endloop
  endfacet
  facet normal 0.684544 0.728972 0
    outer loop
      vertex 2.9844 -113.083 3
      vertex 3.23752 -113.32 -1
      vertex 2.9844 -113.083 -1
    endloop
  endfacet
  facet normal 0.904829 0.425776 0
    outer loop
      vertex 2.57701 -112.522 3
      vertex 2.42917 -112.208 -1
      vertex 2.42917 -112.208 3
    endloop
  endfacet
  facet normal 0.904829 0.425776 0
    outer loop
      vertex 2.42917 -112.208 -1
      vertex 2.57701 -112.522 3
      vertex 2.57701 -112.522 -1
    endloop
  endfacet
  facet normal 0.982287 0.187381 0
    outer loop
      vertex 2.32187 -111.878 3
      vertex 2.2568 -111.537 -1
      vertex 2.2568 -111.537 3
    endloop
  endfacet
  facet normal 0.982287 0.187381 0
    outer loop
      vertex 2.2568 -111.537 -1
      vertex 2.32187 -111.878 3
      vertex 2.32187 -111.878 -1
    endloop
  endfacet
  facet normal 0.998027 0.0627914 0
    outer loop
      vertex 2.2568 -111.537 3
      vertex 2.235 -111.19 -1
      vertex 2.235 -111.19 3
    endloop
  endfacet
  facet normal 0.998027 0.0627914 0
    outer loop
      vertex 2.235 -111.19 -1
      vertex 2.2568 -111.537 3
      vertex 2.2568 -111.537 -1
    endloop
  endfacet
  facet normal 0.481758 0.876304 -0
    outer loop
      vertex 3.82272 -113.692 -1
      vertex 3.51844 -113.525 3
      vertex 3.82272 -113.692 3
    endloop
  endfacet
  facet normal 0.481758 0.876304 0
    outer loop
      vertex 3.51844 -113.525 3
      vertex 3.82272 -113.692 -1
      vertex 3.51844 -113.525 -1
    endloop
  endfacet
  facet normal 0.587793 0.809012 -0
    outer loop
      vertex 3.51844 -113.525 -1
      vertex 3.23752 -113.32 3
      vertex 3.51844 -113.525 3
    endloop
  endfacet
  facet normal 0.587793 0.809012 0
    outer loop
      vertex 3.23752 -113.32 3
      vertex 3.51844 -113.525 -1
      vertex 3.23752 -113.32 -1
    endloop
  endfacet
  facet normal 0.844326 0.53583 0
    outer loop
      vertex 2.76307 -112.815 3
      vertex 2.57701 -112.522 -1
      vertex 2.57701 -112.522 3
    endloop
  endfacet
  facet normal 0.844326 0.53583 0
    outer loop
      vertex 2.57701 -112.522 -1
      vertex 2.76307 -112.815 3
      vertex 2.76307 -112.815 -1
    endloop
  endfacet
  facet normal 1 -0 0
    outer loop
      vertex 80 -85 0
      vertex 80 -70 -1
      vertex 80 -70 0
    endloop
  endfacet
  facet normal 1 0 0
    outer loop
      vertex 80 -70 -1
      vertex 80 -85 0
      vertex 80 -85 -1
    endloop
  endfacet
  facet normal 0.355217 0.934784 -0
    outer loop
      vertex 85 -86.9 -1
      vertex 80 -85 0
      vertex 85 -86.9 0
    endloop
  endfacet
  facet normal 0.355217 0.934784 0
    outer loop
      vertex 80 -85 0
      vertex 85 -86.9 -1
      vertex 80 -85 -1
    endloop
  endfacet
  facet normal 1 -0 0
    outer loop
      vertex 85 -102.1 0
      vertex 85 -86.9 -1
      vertex 85 -86.9 0
    endloop
  endfacet
  facet normal 1 0 0
    outer loop
      vertex 85 -86.9 -1
      vertex 85 -102.1 0
      vertex 85 -102.1 -1
    endloop
  endfacet
  facet normal 0.355219 -0.934783 0
    outer loop
      vertex 80 -104 -1
      vertex 85 -102.1 0
      vertex 80 -104 0
    endloop
  endfacet
  facet normal 0.355219 -0.934783 0
    outer loop
      vertex 85 -102.1 0
      vertex 80 -104 -1
      vertex 85 -102.1 -1
    endloop
  endfacet
  facet normal 1 0 0
    outer loop
      vertex 80 -127.069 15
      vertex 80 -128.724 15
      vertex 80 -127.069 0
    endloop
  endfacet
  facet normal 1 -0 0
    outer loop
      vertex 80 -127.069 0
      vertex 80 -104 -1
      vertex 80 -104 0
    endloop
  endfacet
  facet normal 1 0 0
    outer loop
      vertex 80 -127.069 0
      vertex 80 -128.724 -1
      vertex 80 -104 -1
    endloop
  endfacet
  facet normal 1 0 0
    outer loop
      vertex 80 -128.724 -1
      vertex 80 -127.069 0
      vertex 80 -128.724 15
    endloop
  endfacet
  facet normal 0 1 -0
    outer loop
      vertex 80 -70 -1
      vertex 49.5 -70 0
      vertex 80 -70 0
    endloop
  endfacet
  facet normal 0 1 0
    outer loop
      vertex 49.5 -70 0
      vertex 80 -70 -1
      vertex 49.5 -70 -1
    endloop
  endfacet
  facet normal -0.946772 0.321905 0
    outer loop
      vertex 47.8 -75 -1
      vertex 49.5 -70 0
      vertex 49.5 -70 -1
    endloop
  endfacet
  facet normal -0.946772 0.321905 0
    outer loop
      vertex 49.5 -70 0
      vertex 47.8 -75 -1
      vertex 47.8 -75 0
    endloop
  endfacet
  facet normal 0 1 -0
    outer loop
      vertex 47.8 -75 -1
      vertex 34.2 -75 0
      vertex 47.8 -75 0
    endloop
  endfacet
  facet normal 0 1 0
    outer loop
      vertex 34.2 -75 0
      vertex 47.8 -75 -1
      vertex 34.2 -75 -1
    endloop
  endfacet
  facet normal 0.946773 0.321902 0
    outer loop
      vertex 34.2 -75 0
      vertex 32.5 -70 -1
      vertex 32.5 -70 0
    endloop
  endfacet
  facet normal 0.946773 0.321902 0
    outer loop
      vertex 32.5 -70 -1
      vertex 34.2 -75 0
      vertex 34.2 -75 -1
    endloop
  endfacet
  facet normal 0 1 0
    outer loop
      vertex 32.5 -70 0
      vertex 32.5 -70 -1
      vertex -1.87607 -70 0
    endloop
  endfacet
  facet normal 0 1 -0
    outer loop
      vertex -1.87607 -70 0
      vertex -3.37607 -70 15
      vertex -1.87607 -70 15
    endloop
  endfacet
  facet normal 0 1 0
    outer loop
      vertex -1.87607 -70 0
      vertex -3.37607 -70 -1
      vertex -3.37607 -70 15
    endloop
  endfacet
  facet normal 0 1 0
    outer loop
      vertex -3.37607 -70 -1
      vertex -1.87607 -70 0
      vertex 32.5 -70 -1
    endloop
  endfacet
endsolid OpenSCAD_Model
